<svg xmlns="http://www.w3.org/2000/svg" viewBox="0 0 408.93 465.55"><defs><style>.cls-1{fill:#432918;}.cls-2{fill:#634e42;}.cls-3{fill:#a48a7b;}.cls-4{fill:#996e47;}.cls-5{fill:#b17f4a;}.cls-6{fill:#cbbba0;}.cls-7{fill:#7b6a58;}.cls-8{fill:#a3bf4d;}</style></defs><title>Logo_PasAgroPas_Cores</title><g id="Layer_5" data-name="Layer 5"><path class="cls-1" d="M311.07,222.88c0,5.17,0,10.12,0,15.07,0,.6-.36.83-.73,1.25-1.28,0-2.63,0-4,0-.49,0-.64-.4-1-.6-.07-.41.51-.53.4-1s.08-.92-.13-1.13a1.56,1.56,0,0,1-.36-1.3q0-12.6,0-25.19a1.48,1.48,0,0,1,.42-1.29.91.91,0,0,0,0-.89c-.9-.89-.15-2-.56-2.87a4.27,4.27,0,0,1,2.91-.82c.63.06,1.28,0,1.91,0s1.3-.26,1.74.44c.59-.08,1.27.32,1.77-.29.2-.24.43-.16.65-.16,2.08,0,4.16,0,6.24,0,.71,0,1.16.71,2,.53.64-.15,1.18.68,1.93.49.44.56,1.24.56,1.7,1.17.28.39.9.47,1.32.84s.37,1,.83,1.35.59.87.84,1.33c.08.14.3.26.28.36a5.22,5.22,0,0,0,.46,2.21,9.07,9.07,0,0,1,0,2.15c0,.15,0,.4-.08.44-.73.35-.09,1.24-.66,1.65-.4.29-.14.74-.27,1.32L327,219.66a5.31,5.31,0,0,1-2,1.54c-.71.21-1.27.86-2.1.72-.54.81-1.47.27-2.15.6,0,.65.64.16.83.53s.4.61.66.66a2.92,2.92,0,0,1,1.49,1c.41.39.8.79,1.19,1.19.79.79,1.58,1.59,2.38,2.37a13.55,13.55,0,0,0,2.49,2.08,14.18,14.18,0,0,1,2.23,2.16c.79.8,1.64,1.54,2.35,2.4.38.47,1.07.26,1.36.82s.77.46,1.14.7.64.73,1,1a14.09,14.09,0,0,0,1.79.87,17.78,17.78,0,0,0,4,1.38c.57.11,1.05.63,1.72.47.43.7,1.13.44,1.73.45s1.09.2,1.54-.36c.14-.17.59-.08.9-.11s1,.1,1.13-.11c.38-.46,1.1-.24,1.37-.82s.8-.41,1.14-.69.64-.76,1-1a3.39,3.39,0,0,1,2.32-.77,1.35,1.35,0,0,1,1,1.07c.1,1.16.06,1.16-1.21,1.87-.34.19-.59.53-1,.43s-.68.54-1,.45c-.74-.23-1.1.52-1.73.52s-1.08-.12-1.52.42c-.13.16-.6,0-.92,0-2.32,0-4.64,0-7,0-.61,0-1.3.2-1.72-.48h-1.92c-.35-.6-.94-.47-1.47-.51-.37-.79-1.42-.11-1.81-.84a3.13,3.13,0,0,1-1.7-.56c-.52-.41-1.28-.43-1.75-1-.91.16-1.07-1.16-2-1l-1.36-1.35c-.68.09-.95-.49-1.32-.86-2-2-3.93-4-6-5.9-.49-.46-.55-1.09-1-1.53l-1.19-1.18c-.45-.46-.9-.91-1.36-1.36-.22-.23-.47-.66-.67-.64-.92.07-1.06-1.22-2-1.06a1.14,1.14,0,0,0-1-.47C313.82,222.91,312.54,222.88,311.07,222.88Zm0-16.8v14.38a.65.65,0,0,0,0,.24c0,.06.1.11.15.18.47.22,1.07-.1,1.5.47a.83.83,0,0,0,1.07,0,1.28,1.28,0,0,1,1.07-.35,11.37,11.37,0,0,0,1.43,0c.52,0,1.1.24,1.56-.28s.91-.1,1.36-.19l1.57-.83c.49-.23.26-.86.66-1.17a4.15,4.15,0,0,0,1.11-1.22c.13-.26.25-.52.41-.78.28-.44-.12-1.14.52-1.47.05,0,.07-.14.06-.21-.1-1.14.33-2.35-.48-3.39a6.8,6.8,0,0,0-2-3.72c-.23-.22-.43-.56-.7-.62a1.59,1.59,0,0,1-.8-.39c-.42-.33-1.12.14-1.49-.5-.06-.12-.43-.1-.66-.1Z" transform="translate(-93.67 -204.08)"/><path class="cls-1" d="M414,239.19h-4.82c-.06-.07-.13-.12-.17-.18a.42.42,0,0,1-.05-.22q0-16.75,0-33.44c.42-.36.64-.77,1.24-.73a23.05,23.05,0,0,0,3.11,0c.9-.06,1.88.35,2.7-.44.17-.16.62,0,.94,0,1.51,0,3,0,4.55,0,.77,0,1.67-.33,2.28.22s1.65-.24,2.14.65a3.3,3.3,0,0,0,1.16.06c.73-.25,1.1.51,1.72.51.13,0,.28.15.36.28.31.5.87.59,1.32.85a3.63,3.63,0,0,1,.69.67c.11.11.33.23.32.33-.06.78.74,1,1,1.52.09.2,0,.46.22.63a.67.67,0,0,1,.26.37c0,.68-.15,1.42.49,2v2.4a1,1,0,0,1,0,.24c0,.07,0,.17-.09.19-.67.33-.13,1.11-.52,1.45s-.23.74-.49,1c-.43.44-.41,1.13-1,1.52s-1,1-1.55,1.49a5.79,5.79,0,0,1-1.53.91c-.55.2-1,.71-1.72.54-.26-.06-.51.51-1,.46a15.08,15.08,0,0,1-1.91,0c-.68-.17-.82.7-1.49.54a8.69,8.69,0,0,0-1.91,0H415c-.4.29-.24.72-.24,1.09,0,4.63,0,9.26,0,13.89C414.78,238.43,414.51,238.73,414,239.19Zm.71-18.36a2.29,2.29,0,0,0,.38.13h4.56c.54,0,1.09-.06,1.64-.09.47-.67,1.22-.19,1.74-.43a12.05,12.05,0,0,0,1.19-.6,4.3,4.3,0,0,0,.68-.67c.48-.5.54-1.29,1.18-1.68.1-.06.07-.29.16-.4.37-.48.38-1.16.87-1.56a14.89,14.89,0,0,0,0-3.53c-.67-.32-.14-1.1-.53-1.45s-.25-1.09-.83-1.35a3.55,3.55,0,0,0-2.17-2.18c-.34-.61-1.11-.25-1.44-.54a2,2,0,0,0-1.53-.4c-1.6,0-3.2,0-4.8,0-.37,0-.8-.16-1.1.23Z" transform="translate(-93.67 -204.08)"/><path class="cls-1" d="M116.19,222.88v16.26h-4.61l-.52-.51c-.24-.17-.14-.43-.14-.65a6.92,6.92,0,0,1,0-1.44c.12-.57-.51-.73-.51-1.24,0-2.16,0-4.32,0-6.48a.86.86,0,0,1,.21-.64,1.49,1.49,0,0,0,.15-1.74,2.35,2.35,0,0,1-.36-1.3c0-1.68,0-3.36,0-5a1.51,1.51,0,0,1,.42-1.29.91.91,0,0,0,0-.89c-.6-.59-.44-1.3-.45-2,0-1.28,0-2.56,0-3.84a1.13,1.13,0,0,1,.32-.83c.25-.31.21-.36,0-.81-.07-.13-.27-.24-.27-.36,0-.88,0-1.76,0-2.64,0-.4.55-.52.49-1a3,3,0,0,1,.08-1.16c0-.2.32-.35.49-.52s.12-.12.19-.12a3.65,3.65,0,0,1,.47,0h3.73c.26-.18.48-.44.6-.39a2.81,2.81,0,0,0,2.78,0,1.12,1.12,0,0,1,1.12.07,1.57,1.57,0,0,0,2.13,0,.76.76,0,0,1,.41-.15c.56,0,1.12,0,1.66,0,.25.2.39.51.78.49s.66-.86,1.07-.08c.54.05,1.21-.06,1.58.21s.94.17,1.29.38.9.31,1.18.62.91.19,1.19.65a1.4,1.4,0,0,0,1.15.69s.17.12.16.16c-.2.88,1,1,1,1.77,0,.41.4.78.59,1.18a2.22,2.22,0,0,1,.35,1.06c0,1.36,0,2.72,0,4.08a3.76,3.76,0,0,1,0,.95c0,.21-.37.34-.41.54s-.06.62-.36.82-.1.44-.18.64-.22.23-.33.35l-1.53,1.52c-.11.11-.25.28-.36.28-.7-.06-.85.64-1.31.9-.26.14-.63,0-.82.35a.54.54,0,0,1-.63.19c-.67-.12-1,.66-1.73.51a15.6,15.6,0,0,0-1.68,0c-.65-.06-1,.66-1.72.52a9.46,9.46,0,0,0-1.92,0h-5.72Zm8.88-16.32c-.67.21-1.15-.32-1.72-.45a7.15,7.15,0,0,0-1.67,0h-1.92c-.56,0-1.12,0-1.68,0s-1.26-.2-1.83.14v14.56c.11.08.17.16.24.16h5.27a7.57,7.57,0,0,1,1.43,0c.57.11.74-.48,1.25-.52,1.51-.12,2.43-1.16,3.27-2.28,0-.68.65-.85,1-1.31a7.59,7.59,0,0,0,0-1.65c-.14-.64.46-.95.5-1.48,0-.24.09-.61,0-.69-.55-.41-.42-1-.45-1.51,0-.37.16-.79-.2-1.11s-.39-1-.84-1.35C126.73,208.3,125.92,207.41,125.07,206.56Z" transform="translate(-93.67 -204.08)"/><path class="cls-1" d="M294.27,223.37H284c-.63-.46-1-1-.68-1.79a1.36,1.36,0,0,1,.42-.13c1,0,2.08,0,3.12,0h.24c.08,0,.19,0,.23,0,.78.89,1.8.26,2.69.45.88-.73,1.94-.44,2.93-.47s1.91,0,2.87,0c.54,0,1.14-.18,1.51.42.54.07,1.21.29,1.58-.08.77-.76,1.09-.09,1.59.37a12.8,12.8,0,0,0,0,2.31c.12.66-.62.88-.53,1.49a1.52,1.52,0,0,1-.43,1.51c-.24.21.07.72-.18,1.11-.6.94-.91,2.06-1.58,2.93-.38.49-.59,1.07-1,1.51-.7.77-1.46,1.48-2.2,2.22-.84.14-1.22.92-1.85,1.34a12,12,0,0,1-2.39,1.17c-.41.15-.67.69-1.23.5s-.73.64-1.23.47c-.66-.23-.9.56-1.49.5s-1.12,0-1.68,0c-1.2,0-2.4,0-3.6,0-.6,0-1.26.24-1.81-.26s-1.18,0-1.56-.25-1-.33-1.38-.76-1.11.13-1.49-.5c-.12-.21-.54-.21-.79-.37s-.56-.61-.9-.7a1.14,1.14,0,0,1-.76-.48c-.35-.6-1.13-.45-1.53-1a8.2,8.2,0,0,0-1.34-1.36,3.14,3.14,0,0,1-1-1.51c-.26-1-1.09-1.48-1.69-2.18a2.91,2.91,0,0,0-.3-1.32c-.29-.56-.84-1.12-.66-1.88-.64-.54-.51-1.28-.46-2s-.76-1.15-.53-2a3.86,3.86,0,0,0,0-1.91c-.16-.67.68-.84.54-1.49-.09-.41-.23-1,.3-1.3a.33.33,0,0,0,.15-.18c.1-.52-.17-1.08.18-1.6a3.27,3.27,0,0,0,.74-1.36c0-.58.42-1,.48-1.48.09-.74,1-.82,1-1.52,0-.14.06-.35.16-.4.67-.37.66-1.21,1.18-1.68.24-.22.42-.53.69-.66a5.81,5.81,0,0,0,2.3-1.38c.54-.7,1.55-.75,2-1.52,1-.2,1.74-1.25,2.91-1.09.45-.57,1.1-.45,1.72-.49s1.09.25,1.56-.28.9-.14,1.36-.18,1.12,0,1.68,0a5.24,5.24,0,0,0,1.43,0c.87-.28,1.38.71,2.21.51s1.23.48,1.86.72a2.34,2.34,0,0,0,.86.23c.15,0,.35,0,.44.08a6.21,6.21,0,0,0,1.48,1c.52.28,1.23.31,1.53,1,.22.46.84.26,1.17.67s.43.67,0,1.18l-.36.35H293.1c-.82-.54-1.27-1.53-2.29-1.92a22.36,22.36,0,0,1-2.37-1.25c-.13-.07-.29-.19-.4-.16-.69.21-1.07-.53-1.73-.51-1.68.06-3.36,0-5,0l-1.18,0c-.34.61-1,.33-1.46.53-.27.1-.48.32-.78.44a3.75,3.75,0,0,0-1.07.9c-.69.67-1.36,1.35-2,2-.23.22-.6.47-.6.7,0,.7-.86.86-.88,1.31,0,.73-.5,1.26-.61,1.93,0,.29-.53.37-.47.76a1.65,1.65,0,0,1-.44,1.27c-.19.27-.08.78,0,1.17a5.45,5.45,0,0,1-.45,2,11.9,11.9,0,0,0,0,2.39,14.52,14.52,0,0,1,0,2.64c-.16.8.56,1.24.53,2s-.27,1.29.4,1.74c.06.54-.05,1.19.22,1.58s.27.85.61,1.21a4.72,4.72,0,0,1,.67,1.39,9.57,9.57,0,0,0,3.31,3.8c.49,0,.63.42.93.64s.3.38.59.32c.52-.11.84.26,1.26.44a2.53,2.53,0,0,0,1.42,0c.55-.09.72.59,1.24.51a3.45,3.45,0,0,1,1.2,0c1.06.24,1.88-.57,2.88-.63.22,0,.45-.35.8-.35a5,5,0,0,0,1.73-.46,2.44,2.44,0,0,0,1.42-1.43c.16-.52.64-.69.84-1.1a4.15,4.15,0,0,1,.68-1.16,8.35,8.35,0,0,0,1.34-2.56,5.3,5.3,0,0,1,.49-1.25c.19-.25,0-.77,0-1.17s.61-.67.49-1.24a7.67,7.67,0,0,1,0-1.44Z" transform="translate(-93.67 -204.08)"/><path class="cls-1" d="M336,226.43c0-.42.08-.85-.32-1.28a4.32,4.32,0,0,1-.61-1.17,3.14,3.14,0,0,1-.52-1.95,1.06,1.06,0,0,0-.41-1.26,19.81,19.81,0,0,1,.05-4c.65-.48.4-1.18.34-1.76a3.87,3.87,0,0,1,.5-1.73c.16-.49.72-.85.5-1.47a.31.31,0,0,1,0-.23.52.52,0,0,1,.16-.17,3.08,3.08,0,0,0,1-1.49c.76,0,.95-.52,1.23-1.13a4.8,4.8,0,0,1,1.29-1.38c.57-.49,1.26-.82,1.87-1.29s1.22-.48,1.77-.9a1,1,0,0,1,.67-.09c.6.12,1-.24,1.48-.49a3.32,3.32,0,0,1,2-.49,4.68,4.68,0,0,0,1.67,0c.79-.21,1.26.53,2,.51h1.92c.3.82,1.18.23,1.64.66.11.11.22.26.36.29.88.2,1.56.84,2.43,1.07L360.4,210c0,.91,1.13,1.24,1.2,2.15,0,.19.37.42.33.55-.24.72.62,1.08.5,1.73s.64,1,.51,1.72a8.45,8.45,0,0,0,0,1.67v1.92a15.49,15.49,0,0,1,0,1.67c0,.52-.66.86-.47,1.48s-.23.85-.46,1.25-.3,1-.61,1.41c-.44.54-.48,1.33-1.16,1.69-.52.28-.55.89-.86,1.31s-.51.75-.84.83c-1,.23-1.38,1.22-2.21,1.62a14.49,14.49,0,0,0-2.76,1.44c-.9-.31-1.5.72-2.44.51a1.85,1.85,0,0,0-1.95.45c-.47,0-1.08.13-1.38-.1a1.8,1.8,0,0,0-1.29-.38,8,8,0,0,0-1.2,0c-.48.08-.6-.46-1-.49s-.74,0-.88-.14c-.29-.36-.75-.22-1-.49a1.26,1.26,0,0,0-.82-.36c-.26,0-.37-.49-.76-.46s-.51-.33-.74-.53-.43-.48-.68-.66-.69-.31-1-.53-.75-.52-.82-.84C337.39,227.51,336.52,227.15,336,226.43Zm10.34,5.09c1.15,0,2.36-.08,3.54,0,.64.06,1-.44,1.49-.51.72-.09.89-1.12,1.74-1,.1,0,.22-.2.33-.32s.33-.26.31-.34c-.15-.62.53-.87.59-1.46s.76-1,.81-1.55.43-1,.51-1.48,0-.95.5-1.24c0-.64.05-1.28,0-1.92s.64-1,.52-1.72,0-1.29,0-1.92.26-1.37-.32-2c-.42-.48,0-1.23-.16-1.84-.06-.27-.39-.49-.45-.77s.15-.93-.05-1.16c-.44-.53-.33-1.17-.58-1.7s-.89-.65-.85-1.34c0-.16-.31-.34-.48-.5-.51-.51-1-1-1.52-1.54a3.81,3.81,0,0,0-2.15-1.22c-1.13-.24-2.15-.59-2.89-.17a2.74,2.74,0,0,1-1.38.31c-.69.71-1.39,1.49-2.16,2.18a8.48,8.48,0,0,0-1.4,2.07,20,20,0,0,0-.91,1.79c-.27.56.14,1.4-.53,1.93a7.84,7.84,0,0,0,0,1.68c.15.7-.63,1.05-.52,1.72.23,1.29-.45,2.69.49,3.88a10.46,10.46,0,0,1,0,1.68c-.12.69.73,1,.5,1.73-.12.37.32.5.44.77s-.16.81.19,1.11.23.58.36.81c.31.52.95.8,1,1.52,0,.18.31.34.48.51.41.37.77.94,1.24,1C345.69,230.67,345.89,231.19,346.37,231.52Z" transform="translate(-93.67 -204.08)"/><path class="cls-1" d="M449.13,229.13H434.69c-.71.31-.64,1.2-1.19,1.64.19.84-.43,1.42-.69,2.12a14,14,0,0,1-.86,1.79,38.74,38.74,0,0,0-1.81,3.58,2.74,2.74,0,0,1-.55.73.53.53,0,0,1-.81.08c-.32-.23-.52-.65-.31-.84.46-.42,0-1.06.47-1.51a2.6,2.6,0,0,0,.67-1.38c.12-.67.92-.78,1-1.51.08-.54.73-1,.82-1.55a5.17,5.17,0,0,1,.57-1.7,3.64,3.64,0,0,0,.47-1c.09-.46.68-.68.5-1.24s.38-.64.47-1a4.27,4.27,0,0,1,.79-1.58c.33-.43.48-1,.84-1.32.86-.71.81-1.77,1.22-2.64.15-.32.12-.72.44-1a4.41,4.41,0,0,0,1-2.21c.06-.48.68-.68.51-1.23a25.24,25.24,0,0,0,1.57-3,1.69,1.69,0,0,0,.33-1.06c-.1-.48.4-.61.52-1a3.6,3.6,0,0,1,1-1.75,1,1,0,0,0,.42-1c-.12-.53.48-.72.54-1.23s.54-.73.42-1.25c-.06-.28.14-.44.32-.59a1.49,1.49,0,0,0,.66-1.41c-.05-.45.48-.58.71-1,1.54,3.24,3.22,6.36,4.73,9.58.52.32.09,1,.37,1.27a4.15,4.15,0,0,1,.63,1.19c1.17,2.23,2.24,4.52,3.44,6.73.28.5-.09,1.09.46,1.51.34.25.23.89.68,1.14-.19.62.71.85.53,1.46.48.24.38.8.66,1.17a8.55,8.55,0,0,1,.73,1.37c.49,1,.92,2,1.46,3s.52,1.87,1.06,2.68.85,1.73,1.32,2.57l.42.72-.64.69h-6.26l-1.19-1.2c.26-.63-.75-.83-.51-1.46-.49-.24-.41-.8-.67-1.17a3.6,3.6,0,0,1-.71-1.37c-.07-.49-.7-.69-.52-1.24-.8-.37-.25-1.29-.78-1.85A5.84,5.84,0,0,1,449.13,229.13Zm-7.23-14.87c-.29.27-.74.53-.71.7.11.58-.53.74-.53,1.25s-.64.67-.52,1.21c-.48.23-.32.84-.68,1.16s-.2.91-.67,1.15c.19.56-.47.75-.54,1.22s-.37.65-.44,1a4.1,4.1,0,0,1-.34,1.06c-.62,1.38-1.42,2.67-2,4.19h12c.28,0,.59-.52.39-.67-.49-.35-.52-.93-.76-1.38a3.58,3.58,0,0,1-.72-1.61c-.58-.25-.27-1.07-.85-1.32a3.26,3.26,0,0,0-.52-1.7C443.94,218.45,442.93,216.35,441.9,214.26Z" transform="translate(-93.67 -204.08)"/><path class="cls-1" d="M162.64,239.07c-.06.05-.13.12-.19.12h-6.66a5.21,5.21,0,0,1-1.17-2.2c.06-.62-.73-.83-.52-1.49s-.43-.79-.73-1.12a.75.75,0,0,1-.21-.64c.07-.66-.47-1.08-.66-1.65-.13-.41-.75-.55-.8-1.11s-.59-.68-.56-1.22c0-.16-.31-.33-.48-.5s-.11-.13-.18-.14a3.85,3.85,0,0,0-.48,0H136.6a7.07,7.07,0,0,0-1.63,2.72c-.56,1.12-1.17,2.23-1.66,3.39a4.52,4.52,0,0,0-.34,1.06,2.75,2.75,0,0,1-.46,1c-.34.5-.4,1.14-.86,1.57-.11.11-.22.23-.34.34s-.63-.06-.65-.17a3.34,3.34,0,0,1,.41-2.65c-.12-.47.53-.56.49-1s.5-.59.65-.93c.48-1.08,1.3-2,1.31-3.32,0-.53.48-1.06.74-1.59.54-1.14,1-2.31,1.63-3.4s1.08-2.28,1.76-3.36a.66.66,0,0,0,.13-.41,1.22,1.22,0,0,1,.55-1.23c.12-.1.32-.22.32-.33,0-.81,1-1,1-1.73.06-.49.72-.68.5-1.24s.57-.74.48-1.24.29-.84.46-1.25c.55-1.38,1.42-2.61,1.92-4,.24-.67,1.11-.88,1.08-1.72,0-.21.45-.41.39-.79-.21-1.25.77-2.08,1.13-3.13a1,1,0,0,1,1.18-.59c.24,0,.5.06.55.3a10.24,10.24,0,0,0,1.11,2.42,14.51,14.51,0,0,0,1.15,2.17c.36.5-.13,1.32.63,1.66-.12.6.69.84.55,1.45.49.41.58,1,.88,1.56s.41,1,.66,1.4.52,1.07.79,1.59a8.54,8.54,0,0,0,.74,1.37c.42.5-.06,1.31.67,1.65-.21.62.73.84.51,1.47.58.34.62,1,.91,1.55a9.36,9.36,0,0,1,.8,1.58,7.54,7.54,0,0,0,.7,1.39,11.25,11.25,0,0,1,.78,1.6,12.6,12.6,0,0,0,.87,2.28c.37.64.68,1.31,1,2s.74,1.46,1.12,2.18.63,1.33,1,2A2.54,2.54,0,0,1,162.64,239.07Zm-25.25-12c.27.29.61.15.91.15,3.27,0,6.54,0,9.81,0,.54,0,1.23.28,1.58-.18s-.32-1.1-.55-1.59c-.4-.87-.81-1.74-1.26-2.59-.25-.46-.48-.92-.72-1.38s-.5-.91-.72-1.38-.3-1.08-.66-1.38c-.54-.45-.15-1-.45-1.51a16,16,0,0,1-1.39-2.77c0-.1-.26-.16-.4-.16a1.08,1.08,0,0,0-.4.17s0,.14-.07.21c-.2.48-.28,1.1-.64,1.39-.55.45-.05,1.12-.48,1.49s-.3,1-.8,1.35c.13.6-.69.84-.55,1.45-.56.26-.26,1.08-.84,1.33.16.55-.43.76-.55,1.21a7.12,7.12,0,0,1-.64,1.41,5.35,5.35,0,0,0-.74,1.36A3.86,3.86,0,0,1,137.39,227Z" transform="translate(-93.67 -204.08)"/><path class="cls-1" d="M247.94,204.14c1.47,2.93,2.9,5.83,4.41,8.7.28.54-.17,1.35.64,1.65a5.28,5.28,0,0,0,.85,1.81,16.87,16.87,0,0,0,.71,1.62c.37.49.49,1.08.84,1.58a2.35,2.35,0,0,1,.46,1c0,.44.63.53.5,1,.51.84.52,1.89,1.08,2.67s.64,1.69,1.32,2.33a15.52,15.52,0,0,0,1.2,2.62c.07.21.26.43.23.62-.1.58.29.85.61,1.19.15.17.35.38.34.57a1.28,1.28,0,0,0,.5,1.24c-.22.63.73.84.52,1.46.48.24.46.78.65,1.18a4.79,4.79,0,0,1,.75,1.6c.67.63.51,1.38.4,2.18h-6.36a4.69,4.69,0,0,1-1.72-2.47c-.32-.74-1-1.34-1-2.24,0-.4-.3-.52-.49-.76a27.69,27.69,0,0,1-1.91-3.76,5.2,5.2,0,0,1-.07-.64c-.11-.08-.17-.15-.24-.15H237.86c-.86.84-1.06,2-1.69,2.93-.49.7-.38,1.58-.91,2.27a10.14,10.14,0,0,0-1,2,3.89,3.89,0,0,1-.17.41c-.31.51-.52,1.07-.79,1.59,0,.07,0,.17,0,.22-.37.43-.74.83-1.4.69-.32-.06-.61-.37-.47-.63a4.88,4.88,0,0,1,.79-1.33c.42-.4.51-1,.85-1.33s.25-.89.26-1.34.26-.54.37-.81c.4-1,.93-1.85,1.38-2.79a4.25,4.25,0,0,1,.83-1.35,3.15,3.15,0,0,0,.77-1.34c.13-.43,0-.88.4-1.29.23-.22.18-.73.54-1-.19-.61.73-.84.52-1.46s.34-.83.52-1.22c.65-1.49,1.44-2.92,2.18-4.37.24-.47.34-1,.85-1.33s.21-.89.66-1.18c.13-.08.09-.43.11-.66s-.07-.79.09-.9c.51-.34.36-1,.81-1.38.95-.87,1.09-2.27,1.87-3.29a1.41,1.41,0,0,0,.11-.67c0-.31-.07-.79.09-.9.51-.34.25-1.09.83-1.36s.4-.83.7-1.13a1.34,1.34,0,0,0,.3-1.08C247.23,204.63,247.73,204.52,247.94,204.14Zm-2.85,10.06a4.1,4.1,0,0,0-.72.88c-1.1,2.41-2.38,4.75-3.5,7.16-.16.35-.42.64-.35,1s-.57.69-.53,1.24c0,.28-.5.52-.47,1,0,.23-.55.37-.43.75s-.72.46-.27.93h11.71c.45,0,.77-.46.48-.75-.67-.67-.61-1.72-1.34-2.33.17-.55-.52-.75-.51-1.22s-.69-.68-.5-1.23c-.6-.34-.27-1.06-.54-1.43a3,3,0,0,1-.43-1.28,2.64,2.64,0,0,0-.74-1.35,4.89,4.89,0,0,1-1-1.53A20.76,20.76,0,0,1,245.09,214.2Z" transform="translate(-93.67 -204.08)"/><path class="cls-1" d="M164.68,232.23c.2-.2.36-.38.55-.54a.6.6,0,0,1,.82,0,2.68,2.68,0,0,1,.68,1.16c.2.41.69.57.85,1.09a2.1,2.1,0,0,0,1.42,1.4,1.65,1.65,0,0,1,.57.37c.24.2.53.63.69.58.79-.24,1.25.57,2,.53,1-.05,2.08,0,3.11,0a2.07,2.07,0,0,0,1-.39,3.27,3.27,0,0,1,1.32-.12l2.8-2.8c0-1,0-2.23,0-3.42a2,2,0,0,0-.46-1.27c-.14-.21-.15-.57-.4-.78a2.41,2.41,0,0,1-.5-.51c-.16-.25-.22-.55-.36-.81-.31-.6-1.11-.46-1.5-1a3.85,3.85,0,0,0-1.46-1.07c-.45-.24-1.1-.24-1.35-.81s-.95-.41-1.36-.8a2.46,2.46,0,0,0-1.17-.59c-.66-.1-.82-.88-1.29-.92s-.74-.54-1.22-.56-.75-.54-1.08-.86a2.19,2.19,0,0,0-1.16-.68c-.13,0-.22-.24-.35-.32-.3-.21-.22-.56-.35-.82a2,2,0,0,0-.49-.51c-.24-.22-.47-.43-.4-.8-.78-.44-.14-1.57-.95-2v-2.39c.82-.31.37-1.12.65-1.66.5-1,1.32-1.84,1.29-3.06a.77.77,0,0,1,.43-.52,5,5,0,0,0,2.15-1.73c.38-.46,1-.4,1.36-.82s.79-.21,1.12-.11c.87.25,1.38-.65,2.21-.53s1.6,0,2.4,0,1.44-.33,2,.38a3.54,3.54,0,0,1,1.7.54c.68.45,1.55.61,2.09,1.31a1.4,1.4,0,0,0,1.15.7c.11,0,.23.21.34.32s.32.25.31.35c-.17.87,1.06.95,1,1.76a2.84,2.84,0,0,1,.37,2.63c0,.07-.26.15-.4.14-.46,0-.59-.48-.91-.69.18-.55-.35-.82-.53-1.22a5.7,5.7,0,0,0-2.81-3.14c-.54-.32-1.28.07-1.69-.62-.09-.15-.59-.07-.9-.08h-1.43a8,8,0,0,1-1.2,0c-.48-.08-.59.5-1,.49h-.78c-.76.76-1.57,1.52-2.32,2.35a2.52,2.52,0,0,0-.75,1.34,3.16,3.16,0,0,0,.31,2.26c.55.78.77,1.8,1.57,2.45.41.33,1,.32,1.32.85s.91.21,1.16.67.93.52,1.31.87.82.35,1.2.62c.53.36,1.34.47,1.74.92s1.36.5,1.7,1.16,1,.31,1.35.83a6.93,6.93,0,0,0,1,1l1.19,1.18c.17.17.49.35.48.51,0,.69.56.9.87,1.33a.58.58,0,0,1,.1.43c-.24.7.6,1,.52,1.72a11.56,11.56,0,0,0,0,3.11c.21,1.35-.7,2.29-1,3.44A6.09,6.09,0,0,0,184,236c-.28.45-.87.24-1.18.65s-.43.64-.92.68-.67.63-1.08.85-1-.05-1.49.5c-.24.3-.94-.15-1.26.36-.16.25-.42.19-.64.19h-3.6c-1.25,0-1.25,0-3-.81a2.36,2.36,0,0,0-.66-.15c-.22,0-.47,0-.63-.19A4.4,4.4,0,0,0,168,237c-.47-.28-.77-.82-1.21-1.15-.73-.52-.74-1.55-1.52-2-.26-.15-.18-.43-.15-.65C165.24,232.73,164.94,232.49,164.68,232.23Z" transform="translate(-93.67 -204.08)"/><path class="cls-1" d="M464.67,232.66c.43.73,1.42,1,1.49,2,0,.06.11.17.17.17,1.11,0,1.29,1.24,2.26,1.51s.92.44,1.49.44c1.36,0,2.72-.07,4.07,0,.82.06,1.38-.73,2.21-.54.14,0,.35-.27.53-.42s.16-.12.16-.17c0-.8.94-1.06,1-1.73.06-.44.59-.55.51-1s.25-.39.32-.59a2.43,2.43,0,0,0-.06-2.23c-.32-.46-.07-.95-.32-1.31a7.79,7.79,0,0,1-1-1.49,3.12,3.12,0,0,0-1.32-1.35c-.52-.32-1-.68-1.51-1s-1-.66-1.49-1-1.17-.36-1.59-.73-.87-.26-1.2-.64-.91-.2-1.14-.69-.9-.32-1.14-.69c-.46-.7-1.37-.7-1.87-1.33a19.93,19.93,0,0,0-1.51-1.54c-.17-.17-.46-.32-.49-.51a1.14,1.14,0,0,0-.35-.82c-.28-.26-.1-.75-.51-1-.12-.08-.12-.42-.12-.64,0-.88,0-1.76,0-2.64a3.07,3.07,0,0,1,.44-2.23c.2-.23,0-.77,0-1.3l2.8-2.79a8.22,8.22,0,0,1,3.82-1.79c.65-.13,1.22-.56,2-.48s1.44,0,2.16,0,1.45-.32,2,.45a2.19,2.19,0,0,1,1.7.51A11.53,11.53,0,0,1,481.2,207c1.35,1.45,1.53,1.67,2.21,4.13,0,.2.29.34.45.51-.07.06-.12.13-.18.17-.25.18-.35.56-.74.53s-1.06-.57-.95-.87c.27-.76-.64-1.08-.52-1.73-.61-.63-1.24-1.23-1.83-1.88-.37-.42-.93-.5-1.38-.75a2.76,2.76,0,0,0-1.93-.55,4.39,4.39,0,0,1-1.91,0c-1-.26-1.74.64-2.69.51-.4.37-.83.72-1.21,1.12s-1,.66-1,1.25-.72.67-.51,1.23c-1.09,1.12-.38,2.2.27,3.08a21.66,21.66,0,0,0,2.69,2.73c.2.19.61.17.79.37.38.41,1.09.25,1.34.83s1.07.27,1.33.85c.6-.14.88.5,1.45.59s.74,1,1.52.93c.24.59,1,.35,1.34.84a19.08,19.08,0,0,0,1.33,1.37c.27.31,1.09,0,.9.78.32.35.62.71.95,1.05s.6.52.5,1c.49.23.39.81.68,1.16.1.12.25.24.26.37.05.63.06,1.26.08,1.89.6.37.4,1,.41,1.5,0,.38.12.78-.25,1.1s-.23.9-.2,1.34-.51.57-.52,1c0,.63-.86.79-.91,1.29-.06.68-.59.9-.93,1.3s-.68.89-1.32.85a5.84,5.84,0,0,1-2.48,1.54c-.2.08-.28.42-.58.33-.75-.22-1.21.57-2,.51-1.27-.11-2.55,0-3.83,0l-1.19,0c-.36-.8-1.36-.16-1.84-.83-.17-.24-.65-.27-1-.5s-1.15-.38-1.6-.73a8.41,8.41,0,0,1-1.85-1.87c-.44-.66-.71-1.45-1.13-2.16-.26-.44.19-1.24.74-1.57.23-.13.65.12.68.42S464.67,232.42,464.67,232.66Z" transform="translate(-93.67 -204.08)"/><path class="cls-1" d="M203.33,222.87c.68.09,1.32-.21,1.86.39a.86.86,0,0,0,1.08,0,1.41,1.41,0,0,1,1.06-.37c2,0,4,0,6,0a1.54,1.54,0,0,1,1,.44c.21.16.65,0,.73.39a2.18,2.18,0,0,1,0,.72.77.77,0,0,1-.23.37s-.16,0-.24,0h-12a.43.43,0,0,1-.49-.37.76.76,0,0,1,.09-.44,1.51,1.51,0,0,1,.33-.34Z" transform="translate(-93.67 -204.08)"/><path class="cls-1" d="M379.29,224.8a4.84,4.84,0,0,1-.05-.86,1.21,1.21,0,0,1,1-1.06h1.91c1.37,1,2.91.36,4.37.46s2.87,0,4.31,0c1.06,0,1.11-.08,1.22.16a1.23,1.23,0,0,1,.1.43c0,.23,0,.46,0,.68a1.28,1.28,0,0,1-.44.17Z" transform="translate(-93.67 -204.08)"/><path class="cls-2" d="M353.79,473.4c.55-.55,1.22-1,1-1.84a21,21,0,0,0,1.63-3.16c.27-.53.56-1,.8-1.59a3.23,3.23,0,0,1,.6-1.17c.68-.58.81-1.5,1.49-2.05.44-.35,1-.72,1.14-1.19a3.12,3.12,0,0,1,.91-1.31c.32-.35.05-.77.18-1.15l2.53-2.53c.27-.27.48-.61,1-.59.17,0,.36-.27.52-.43s.27-.25.26-.37c0-.49.33-.69.6-.95s.46-.61.94-.65c.26,0,.49-.34.72-.55s.53-.73.86-.8a1.86,1.86,0,0,0,1-.54c.7.16,1.11-.33,1.65-.65,1.08-.63,2.13-1.51,3.55-1.27.72.12,1.18-.84,2-.48,1.55-.56,1.55-.56,2.78-.14a2.73,2.73,0,0,0,.9.13c1.44,0,2.88,0,4.32,0,.61,0,1.3-.3,1.82.2s1.08.1,1.57.28a9.59,9.59,0,0,0,1.21.57c.2.05.4.38.56.35,1.18-.2,2,.68,3,1,.44.13.67.7,1.22.55.23.47.82.35,1.16.67s.45.72.9.71.68.7,1.24.49c.45.45.83,1.09,1.38,1.3a4.24,4.24,0,0,1,1.48,1.07l4.92,4.92c.38.39.92.75,1.07,1.23.21.68.77,1,1.14,1.45s.94.65.84,1.33c.45.45,1.12.83,1.3,1.38a5.26,5.26,0,0,0,1.07,1.48,15.38,15.38,0,0,0,1.45,2c-.05.58.49.76.76,1.12s.2.93.68,1.16l1.87,3.31c0,.23,0,.46,0,.69v2.13c-.12.54-.65.29-.95.54a1.53,1.53,0,0,1-1.93,0c-.68-.46-1.58-.52-2.15-1.17-.92.15-1.08-1.16-2-1-.05,0-.11-.1-.17-.16l-2.22-2.18c-1-.18-1.46-1.13-2.16-1.73a15.42,15.42,0,0,0-2.32-1.91,10.46,10.46,0,0,1-2.06-2c-1.1-.22-1.68-1.14-2.32-1.89-.49-.58-1.25-.57-1.72-1.14a5.18,5.18,0,0,0-1.57-1.39c-.68-.33-1-1-1.61-1.32-.38-.23-.8-.4-1.19-.61a12.23,12.23,0,0,1-2.38-1.16c-.58-.52-1.53.12-1.85-.78-.6-.08-1.29.26-1.78-.36-.54,0-1.08-.11-1.63-.12-1.51,0-3,0-4.55,0-.8,0-1.37.71-2.17.56a5.38,5.38,0,0,1-1.66,1.21c-.34.19-.55.58-.87.82a6.53,6.53,0,0,1-1,.52c-.48.24-.4.81-.69,1.15s-.69.67-1,1-.69.56-.78,1.13c-.07.38-.58.71-.93,1a1.21,1.21,0,0,0-.5,1c-.59.25-.29,1.05-.85,1.33s-.46.77-.69,1.15c-.51.82-.85,1.73-1.3,2.58a17.61,17.61,0,0,1-1.26,2.35c-.35.48.05,1.07-.46,1.52a3,3,0,0,0-.66,1.38c-.13.44-.67.68-.51,1.24s-.74.84-.48,1.48c.05.12,0,.38-.08.43-.46.27-.27.89-.67,1.18s.07,1-.35,1.28-.18.94-.66,1.18c-.07,0-.15.12-.14.17a3.27,3.27,0,0,1-.49,2.2c.29.91-.67,1.56-.48,2.44-.64.54-.46,1.28-.48,2-.59.46-.46,1.11-.48,1.73s-.69.84-.49,1.48-.19.84-.43,1.26.21,1.12-.25,1.56-.27,1.06-.24,1.58-.35.83-.49,1.25a12.39,12.39,0,0,0-.12,1.39c0,.2-.33.36-.37.56-.14.74.31,1.6-.46,2.21-.14.66.24,1.44-.49,2-.12.09,0,.46,0,.7,0,.61.18,1.29-.48,1.72-.09.6.27,1.28-.36,1.78-.09.07-.09.28-.12.42-.11.61.25,1.29-.24,1.82s0,1.18-.27,1.56a3,3,0,0,0-.44,2.22c0,.52-.6.68-.52,1.25.07.42.23,1-.28,1.3-.07,0-.16.12-.16.17a5.78,5.78,0,0,0,0,1.44c.13.58-.53.74-.51,1.25a2.52,2.52,0,0,1-.43,1.75c-.3.43.23,1.25-.43,1.73-.09.07-.07.29-.09.44-.11.66.17,1.35-.39,2-.41.48.23,1.43-.54,1.92,0,0,0,.15,0,.23-.08.52.2,1.09-.31,1.56s-.12.9-.16,1.36-.65.67-.51,1.24a3.45,3.45,0,0,1,0,1.2c0,.45-.59.68-.49,1.24a1.31,1.31,0,0,1-.35,1.3c-.21.21,0,.77-.12,1.14a6,6,0,0,0-.51,2c0,.57-.69,1-.44,1.72a1.26,1.26,0,0,0-.46,1.48c.17.65-.72.82-.53,1.49a1.28,1.28,0,0,1-.32,1.3c-.46.5.24,1.43-.54,1.93a4.34,4.34,0,0,1-.51,1.7c-.24.52.19,1.28-.5,1.71,0,.55.07,1.12-.5,1.48.31.9-.7,1.5-.52,2.45.12.62-.64,1.19-.51,1.92-.75.33-.13,1.2-.67,1.65s.09,1.31-.69,1.63c.34.77-.61,1.23-.49,2s-.82,1-.48,1.72c-.62.62-.32,1.63-1,2.24,0,.56-.65.84-.51,1.49s-.7.85-.45,1.48c0,.07,0,.19,0,.23a3.41,3.41,0,0,0-.9,1.78,16.14,16.14,0,0,1-.78,1.84,10.31,10.31,0,0,1-.87,1.8c-.77,1.36-1.3,2.84-2.17,4.15-.31.48-.37,1.16-.72,1.61s-.65,1-1,1.49c-.7.83-1,1.93-2,2.54-.44,1.35-1.67,2-2.56,3s-1.83,1.78-2.69,2.74c-.34.38-.87.29-1.17.66-.59.74-1.63.88-2.19,1.67a25.07,25.07,0,0,0-3,1.42,10.63,10.63,0,0,1-2.23,1c-.26,0-.38.56-.76.45-.76-.22-1.19.78-2,.5-.51-.19-.83.32-1.24.45a12.78,12.78,0,0,1-1.4.12c-.2,0-.35.32-.56.37-.83.19-1.7-.28-2.53.28s-1.54.09-2.31.22-1.92-.46-2.68.47h-4.08c-.61,0-1.24-.12-1.74.45-.14.16-.62,0-.94,0-2.24,0-4.48.06-6.71,0-1.14,0-2.37.46-3.42-.43-.14-.12-.47,0-.71,0-1.21-.16-2.5.41-3.66-.44-.26-.19-.78,0-1.18,0s-1,.21-1.33-.25-.94,0-1.29-.35-.47-.44-.82-.35c-.68.19-1.15-.3-1.72-.46s-.68-.69-1.24-.51-.66-.32-1-.47a4.44,4.44,0,0,1-1.78-.91c-.75,0-1-.64-1.5-1-.87.2-1-1-1.77-1a16.31,16.31,0,0,1-1.55-1.44c-.33-.4-.83-.38-1.17-.67a12.11,12.11,0,0,0-1-1c-.75-.51-.89-1.44-1.51-2s-1.16-1.12-1.69-1.71c-.14-.14-.06-.49-.2-.62a2.77,2.77,0,0,1-.52-1,2.18,2.18,0,0,0-.83-.85c-.55-.31-.36-1-.84-1.34s-.53-.92-.86-1.32-.29-1.07-.84-1.34-.4-.79-.64-1.18a3.47,3.47,0,0,1-.74-1.86c0-.46-.42-.93-.65-1.39a1.44,1.44,0,0,1-.25-.61,1.18,1.18,0,0,0-.43-1,1.14,1.14,0,0,1-.56-1.2c.11-.51-.66-.68-.48-1.25s-.21-.71-.47-1c.22-.61-.73-.82-.49-1.48s-.74-.84-.48-1.48c.05-.12,0-.39-.07-.43-.66-.34-.16-1.11-.53-1.46s-.23-.74-.49-1-.44-.49-.33-.83c.3-.91-.8-1.53-.51-2.43-.61-.34-.26-1.07-.55-1.44a2.26,2.26,0,0,1-.41-1.29c0-.27-.38-.49-.44-.77-.13-.58.23-1.29-.47-1.73-.06-.53.1-1.13-.51-1.47.32-.9-.78-1.51-.49-2.44.19-.63-.76-1-.51-1.73.11-.35-.6-.68-.44-1.23s-.32-1-.45-1.49,0-.93-.47-1.26c-.08,0,0-.29,0-.45a1.83,1.83,0,0,0-.44-1.51c-.26-.26.16-.94-.38-1.27a.36.36,0,0,1-.14-.18c-.1-.53.25-1.15-.21-1.59s-.19-.89-.27-1.33a10.44,10.44,0,0,1-.6-1.92c0-.22-.37-.44-.37-.8,0-.71-.07-1.41-.1-2.11-.72-.41,0-1.48-.85-1.81-.06-.45.14-.92-.32-1.32s-.17-.91-.14-1.36-.3-.84-.47-1.26,0-1-.12-1.39c-.07-.26-.38-.43-.41-.79,0-.68.19-1.36-.37-2-.41-.48.24-1.43-.55-1.92-.11-.53.21-1.17-.19-1.59s-.26-1-.3-1.56a12,12,0,0,1,0-1.2c-.61-.33-.29-1-.56-1.43a2.22,2.22,0,0,1-.41-1.29c0-.52.18-1.09-.37-1.54-.17-.13-.06-.59-.1-.9-.09-.6.26-1.3-.27-1.8s.1-1.14-.5-1.48c-.06,0-.16-.11-.16-.17a5.71,5.71,0,0,1,0-1.43c.13-.57-.47-.76-.51-1.24s.3-1.32-.18-1.83-.2-1.05-.29-1.57-.62-.69-.5-1.25c.09-.38.18-.92,0-1.17-.66-.85-.3-1.81-.48-2.7-.13-.64-.45-1.25-.61-1.9-.06-.26-.3-.48-.34-.82-.08-.6.32-1.27-.29-1.8-.44-.37.14-1.14-.52-1.46a.25.25,0,0,1-.12-.19,4.28,4.28,0,0,0-.09-1.4c-.15-.34-.43-.6-.41-1,0-.61-.74-1-.48-1.72s-.71-1-.48-1.72c.16-.46-.51-.56-.48-1s.1-.79-.31-1.07a.6.6,0,0,1-.15-.41c0-.4,0-.8,0-1.19-.81-.36-.14-1.41-.85-1.81,0-.71-.46-1.27-.55-1.93-.06-.41-.11-.78-.47-1s-.39-.85-.7-1.15-.24-.71-.32-1.08-.37-.49-.45-.77a11.47,11.47,0,0,0-1.11-2.41,10.36,10.36,0,0,0-1.3-2.35c.11-.9-1.16-1.07-1-2-.56-.44-.49-1.33-1.18-1.67-.07,0-.18-.13-.17-.16.25-.65-.76-.84-.52-1.48l-1-1L220,465.9l-1-1c-.39-.4-.73-.95-1.2-1.15a9,9,0,0,1-1.5-1c-.42-.27-1.12.08-1.45-.53-.8-.23-1.77.36-2.43-.51-.88,0-1.76,0-2.64,0-.49,0-.67.64-1.24.51a2.49,2.49,0,0,0-1.41,0c-.34.13-.58.53-1,.42s-.64.39-1,.47-.81-.15-1.09.26-1.16-.1-1.47.51-1,.67-1.52,1-.89.61-1.33.83a6,6,0,0,0-2.14,1.76c-.56.7-1.45.87-2,1.5a6.2,6.2,0,0,1-1.71,1.65,7.27,7.27,0,0,0-2.47,2.11c-.64.73-1.59.95-2.22,1.67s-1.34,1.36-2,2c-1,.18-1.45,1.13-2.18,1.69a7.37,7.37,0,0,0-1.84,1.36c-.48.64-1.35.62-2,1-.27.17-.45.38-.82.37-.72,0-1.44,0-2.16,0a2.63,2.63,0,0,1-.53-.15,30,30,0,0,0,0-3.28c-.08-.73.48-1.1.66-1.67s.84-.93,1.29-1.38c-.23-.63.73-.84.52-1.47.54-.64,1.38-1.05,1.52-2,.73-.52.92-1.37,1.33-2.09a3.9,3.9,0,0,1,.54-.74c.33-.35.7-.66,1-1s.82-.66.91-1.32c0-.36.83-.22,1.11-.68s1.08-.76,1.2-1.42.89-.79.93-1.28.46-.8.75-1.15a1.07,1.07,0,0,1,1-.53c.09,0,.21-.27.34-.3.6-.14.06-1.24.94-1.11.47-.42.94-.83,1.4-1.26s.8-.78,1.19-1.18a4.87,4.87,0,0,1,1.66-1.21c.39-.18.9-.19,1.18-.65a.92.92,0,0,1,1-.52,2.09,2.09,0,0,1,2.25-.94,11.81,11.81,0,0,1,2.19-1.1c.2-.08.29-.43.57-.33.64.22,1-.42,1.49-.5s1,.24,1.35-.19,1-.06,1.28-.35a1.58,1.58,0,0,1,1.29-.41h6.48a6.2,6.2,0,0,1,1.67,0c.49.16.95.38,1.47.51s.92.52,1.5.42c.3.52,1,.37,1.36.8.12.13.42.12.64.16s.35,0,.46,0c.46.28.65.83,1.29,1a3,3,0,0,1,1.52.91c.39.46,1,.38,1.36.82s.79.8,1.18,1.19c.68.68,1.39,1.34,2,2.05s1.23,1,1.5,1.77.94,1,1.39,1.58c-.16.92,1.19,1.06,1,2,.41.45,1,.79,1,1.5,1.08.92,1.32,2.34,2.05,3.46.45.7.68,1.49,1.12,2.19a10.35,10.35,0,0,1,1.07,2.19,22.27,22.27,0,0,1,1,2.22c.79.36,0,1.44.85,1.81.06.67.82,1.16.53,1.93.44.27.34.9.67,1.15.55.42,0,1.13.5,1.49s0,1,.35,1.27c.58.43.16,1.13.51,1.47s.2.95.41,1.28a2.14,2.14,0,0,1,.44,1.51c.82.31.2,1.21.67,1.64s.2,1,.29,1.56.6.68.5,1.24a1.33,1.33,0,0,0,.35,1.31c.21.2,0,.77.13,1.13a3.92,3.92,0,0,1,.46,2.2c.64.54.46,1.27.48,2,.75.51.52,1.3.45,2s.56.74.52,1.25a3.26,3.26,0,0,0,.05,1.17c.08.26.51.41.42.78-.3,1.21.69,2.22.48,3.41.69.61.45,1.44.48,2.2,0,.54.69.84.49,1.48a1.42,1.42,0,0,0,.43,1.27c.2.25,0,.77,0,1.17s.63.67.5,1.24a3.45,3.45,0,0,0,0,1.2c.06.44.59.68.49,1.24a1.12,1.12,0,0,0,.38,1.28c.09.06.06.29.08.44.1.67-.17,1.35.4,2,.39.47-.23,1.43.55,1.92.09.53-.23,1.17.19,1.59a1.28,1.28,0,0,1,.27,1.32c-.15.7.36,1.15.5,1.73s-.22,1.12.39,1.53c.09.06.11.28.09.42a3.09,3.09,0,0,0,.45,1.74c.26.51-.21,1.28.48,1.73,0,0,0,.14,0,.21.09.52-.23,1.1.29,1.57s.15.9.18,1.36.63.66.51,1.24a1.31,1.31,0,0,0,.32,1.31c.49.49-.25,1.43.53,1.93a4,4,0,0,0,.54,1.7c.26.41-.21,1.08.3,1.55s.09.91.22,1.35.7,1,.47,1.72c.81.31.2,1.21.68,1.63s.18,1,.28,1.57c0,.07,0,.19,0,.21.73.35.17,1.21.68,1.65s0,1.3.68,1.64c.05.53-.09,1.11.5,1.48.07.05,0,.31,0,.46a1.92,1.92,0,0,0,.44,1.52c.24.28,0,.84.37,1.28s.05,1.22.63,1.65c-.32.7.5,1.1.48,1.72,0,.32,0,.63.28.84s.1.75.5,1-.11,1,.35,1.28.32.7.31,1.08.59.52.49,1,.23.71.34,1c.21.63.89,1.13.61,1.91.51.39.38,1.18,1,1.52a1.47,1.47,0,0,0,.48,1.49c-.19.54.45.74.52,1.23a3.6,3.6,0,0,0,.71,1.37c.26.37.18.93.67,1.17-.25.63.77.83.51,1.47.3.44.85.63,1,1.27.09.4.76.69.83,1.08a2.54,2.54,0,0,0,.89,1.32c.33.35.68.68,1,1l2.71,2.71c.17.17.35.49.51.48.69,0,.9.58,1.34.87.24.16.63.16.79.37.41.51,1.1-.06,1.5.48.27.36.91.2,1.16.68,0,0,.14,0,.22,0,.52.08,1.07-.17,1.56.3s1.09.24,1.59.15c.66-.12.82.7,1.5.54a8.1,8.1,0,0,1,1.91,0c.56,0,1.12,0,1.68,0s.69.61,1.24.48c.39-.08.81,0,1.2,0a10.86,10.86,0,0,1,2.68-.5,27,27,0,0,0,3.12,0c1,0,1.93-.06,2.88,0,.55,0,.81-.44,1.24-.49a15.69,15.69,0,0,1,1.68,0h1.44c.77-.83,1.8-.29,2.68-.5.57-.14,1-.61,1.73-.48a7.76,7.76,0,0,0,1.67,0,.82.82,0,0,0,.41-.17c.8-.55,1.87-.67,2.48-1.53.17-.22.4-.2.63-.22s.53,0,.66-.13a9.21,9.21,0,0,1,1.48-1c.47-.32,1.13-.67,1-1.46.57-.38.8-1.18,1.66-1.23.24,0,.57-.38.66-.65s.18-.76.54-1,.36-.87.69-1.14.24-.71.47-1a6,6,0,0,1,1-1.49,14.34,14.34,0,0,0,1.19-1.14,3,3,0,0,1,.3-1.37c.3-.55.83-1.12.66-1.87a20.3,20.3,0,0,0,1.11-2.18c.13-.27.42-.48.32-.82-.18-.68.22-1.19.49-1.73a3.16,3.16,0,0,0,.51-1.72c0-.66.65-1.2.52-1.93.51-.3.3-.84.44-1.26s.57-.72.45-1.25.24-.58.47-.76a1.18,1.18,0,0,0,.49-1.24c-.06-.44.57-.53.49-1,0-.28-.11-.63.2-.87.11-.09.28-.27.25-.36-.34-1.07.75-1.88.5-2.92-.12-.52.69-.71.47-1.24s.75-.86.49-1.48.76-.84.5-1.48c.49-.29.48-.76.47-1.25a11.73,11.73,0,0,1,0-1.18c.72-.34.15-1.23.68-1.63s-.06-1.09.49-1.49c.36-.26.21-.91.69-1.14-.19-.68.45-1.18.43-1.72s.6-.94.53-1.48.3-.84.47-1.25a3.26,3.26,0,0,0,.51-2,5.9,5.9,0,0,1,0-1.19c0-.39.07-.77.11-1.16.68-.31.09-1.12.52-1.45.64-.49,0-1.48.81-1.84.09-.53-.25-1.14.21-1.58a1.27,1.27,0,0,0,.24-1.33c-.24-1.08.63-1.89.59-2.89.38-.25.39-.63.42-1s-.28-1.12.26-1.56-.1-1.13.5-1.48c.1-.06.15-.26.18-.4.12-.61-.32-1.37.19-1.82s-.08-1.33.65-1.68c.09,0,.11-.28.11-.42a6.29,6.29,0,0,1,.06-1.9,4.53,4.53,0,0,0,.45-1.74c0-.6.68-1,.49-1.73a10.27,10.27,0,0,1,0-1.67c-.05-.52.62-.68.51-1.25a7.57,7.57,0,0,1,0-1.43c.73-.52.42-1.28.48-2,.77-.5.28-1.33.54-1.94.15-.33.53-.59.42-1s.57-.71.49-1.25a11.3,11.3,0,0,0,0-1.43c-.2-.66.57-.89.52-1.49a10,10,0,0,1,.1-1.63c.67-.31.07-1.14.52-1.44.64-.44,0-1.25.65-1.69.44-.3-.15-1.12.52-1.46.08,0,.08-.27.11-.42.11-.6-.26-1.3.24-1.81s-.06-1.31.67-1.65c-.22-.89.8-1.52.53-2.42,0,0,.62-1.61.65-1.64.23-.23.6-.42.65-.68.13-.67.76-1.13.65-1.92-.07-.58-.26-1.27.23-1.8s0-1.17.26-1.57.34-1.2.92-1.55.55-1,.93-1.54C354,474.48,353.79,474,353.79,473.4Z" transform="translate(-93.67 -204.08)"/><path class="cls-3" d="M164.57,370.37c-.9,0-.9,0-1.62-.72,0-1.43,0-2.87,0-4.31,0-.45-.15-.91.3-1.32s-.51-.49-.32-.93c.06-.13,0-.31,0-.47,0-.4.57-.52.49-1s.05-.81,0-1.2c-.15-.89.68-1.52.52-2.45a16.46,16.46,0,0,1,0-2.63c.75-.7.37-1.62.5-2.44,0-.2.29-.36.45-.53l-.44-.48c.16-.2.39-.36.43-.56.18-.74-.26-1.53.39-2.26.43-.49-.23-1.42.52-1.94.09-.05.06-.29.07-.44,0-.7.08-1.41.11-2.11.72-.4,0-1.48.85-1.81a1.82,1.82,0,0,1,.45-1.51c.19-.23,0-.78,0-1.17s-.23-1,.2-1.35.14-.76.29-1.08a7.31,7.31,0,0,1,.94-1.22,3.61,3.61,0,0,0,0-.8,2.57,2.57,0,0,1,.48-1.72,2.51,2.51,0,0,0,.46-2c-.07-.83.82-1.35.54-2.19l.89-.88a2.33,2.33,0,0,0,0-.65c-.22-.92.36-1.61.62-2.39.07-.21.28-.37.34-.58a3.53,3.53,0,0,0,0-.81c.19-.17.44-.37.66-.59s.52-.59.78-.88c-.31-.7.53-1.12.46-1.72-.12-1.25.86-2.06,1.14-3.14.78-.46.77-1.51,1.51-2a.72.72,0,0,0,.23-.6c-.07-.68.48-1.09.67-1.66s.77-.67.86-1.34c.06-.47.8-.64.93-1.28.08-.4.58-.72.89-1.07-.22-.62.75-.83.51-1.47a8.3,8.3,0,0,0,.83-.85c.17-.23.18-.6.37-.8.76-.82,1.54-1.63,2.37-2.38s1-1.77,1.85-2.36,1.31-1.78,2.51-2.07c.24-.06.29-.68.53-.94.71-.77,1.51-1.44,2.18-2.23.53-.61,1.39-.65,1.88-1.33a12.09,12.09,0,0,1,1.5-1.54c1.12-.06,1.37-1.49,2.47-1.58.55-.79,1.53-1,2.22-1.62a9.28,9.28,0,0,1,1.57-.81c.58-.34,1.33-.46,1.7-1.09.25-.42.69-.33,1-.48,1.1-.49,1.86-1.57,3.11-1.76,1-.72,2.18-1,3.14-1.69.45-.33,1,0,1.29-.33s.87-.29,1.19-.65.92-.2,1.15-.68c.91.31,1.53-.82,2.44-.49.55.2.75-.62,1.24-.47.64.21.94-.63,1.48-.47s.89-.57,1.49-.53c.24,0,.49-.41.76-.43a1.9,1.9,0,0,0,1.27-.46c.23-.2.77,0,1.17,0,.61,0,1.28.18,1.72-.48.6-.09,1.28.26,1.78-.36.07-.09.27-.09.42-.12.6-.12,1.29.26,1.82-.24s1.19,0,1.55-.27c.79-.63,1.64-.41,2.47-.45a8.57,8.57,0,0,1,1.68,0c.62.11,1-.5,1.48-.46.9.06,1.93-.49,2.68.44.6-.11,1.27.25,1.8-.33.12-.14.42-.14.65-.14a17.16,17.16,0,0,0,2.87-.05c.82-.16,1.24.56,2,.54s1.29-.3,1.75.38l1.65.08a5.38,5.38,0,0,1,1.66,0c.5.18.91.56,1.5.44a1.58,1.58,0,0,0,1.71.45c.65-.11,1,.46,1.49.5s1.28-.14,1.72.49a2.23,2.23,0,0,1,1.5.46c1,.55,2.31.59,3.23,1.44.85-.2,1.44.4,2.12.69s1.32.67,2,1l2,1c.47.24,1,.35,1.33.84s1,.32,1.34.85,1.13.46,1.49,1,1,.34,1.34.84a12.37,12.37,0,0,0,1.34,1.37c.4.39.79.79,1.19,1.19l1.35,1.35c.4.4.78.82,1.2,1.19s.46,1.13,1,1.51a5.31,5.31,0,0,1,1.06,1.46,13.54,13.54,0,0,0,1,1.5c.69.75.85,1.79,1.52,2.49s.73,1.67,1.35,2.33c.39.41,0,1,.34,1.29s.2.79.5,1,.21.9.66,1.2.08.77.52,1a4.52,4.52,0,0,0,1,2.46c-.21.89.79,1.51.53,2.41.82.32.2,1.22.66,1.64s.21,1.05.3,1.57.6.68.5,1.24a1.15,1.15,0,0,0,.37,1.29c.12.09.12.45.08.67-.13.6.35,1,.46,1.49a7.74,7.74,0,0,1,0,1.67c1.07.75-.13,2.22,1,3a9.59,9.59,0,0,0,0,1.2c.14,1.06-.39,2.2.45,3.18.16.19,0,.62,0,.94,0,3.52.05,7,0,10.56,0,1.14.46,2.37-.43,3.42-.12.14,0,.47,0,.7-.12,1.06.37,2.22-.48,3.16v1.68c-.69.62-.38,1.46-.5,2.2-.09.58-.71,1-.46,1.73-.56.36-.51.92-.48,1.48,0,.16,0,.43,0,.46-.76.34-.3,1.14-.65,1.67a8,8,0,0,0-.92,2.25c-.23.77-.91,1.4-.81,2.3-.61.6-.66,1.53-1.2,2.14a6,6,0,0,0-1.22,2.14c-.11.34-.59.53-.47,1,0,0-.09.12-.15.17a4,4,0,0,0-1,1.49c-.28.55-1,.77-1.2,1.43s-.87,1.08-1.33,1.6-.9.91-1.36,1.36l-1.52,1.53c-.45.45-.93.88-1.35,1.37-.28.32-.67.34-1,.52a4.79,4.79,0,0,0-.86.83c-.92-.17-1.05,1.18-2,1-.35.32-.67.83-1.06.89s-.69.69-1.23.53c-.32.34-.88.36-1.15.65s-.9.19-1.21.64-.88-.05-1.3.33a3.33,3.33,0,0,1-1.35.75,3,3,0,0,0-1.29.41c-.3.24-.91.08-1.39.1-.52.85-1.54.15-2.12.65s-1.36.21-2,.3c-.47.06-.67.63-1.24.51a6.91,6.91,0,0,0-1.44,0,8.64,8.64,0,0,1-1.44,0c-.61-.1-.83.71-1.49.52a9.67,9.67,0,0,0-1.43,0c-.85-.1-1.74.29-2.54-.23s-1.74,0-2.53-.28c-.49-.17-.92-.59-1.49-.43s-.8-.56-1.24-.47c-.64.14-1-.46-1.49-.49s-.66-.71-1.22-.53c-.52-.6-1.34-.64-2-1-.45-.27-.65-.94-1.33-.85l-1.7-1.68L234.18,377c-.39-.4-1-.75-1.09-1.21-.14-.66-.84-.85-.9-1.31s-.72-.85-.6-1.45c-.55-.44-.62-1.18-1.1-1.72a8.36,8.36,0,0,1-1.28-2.33c-.15-.33.07-.75-.27-1.1s-.31-.68-.54-1c-.4-.49.17-1.35-.65-1.66.3-.9-.76-1.51-.5-2.44.16-.61-.72-1-.49-1.73a2.52,2.52,0,0,0,0-1.65c-.79-1.75-.21-3.58-.49-5.33-.14-.95.55-1.59.53-2.45,0-.61-.22-1.29.46-1.72v-1.92c.76-.5.39-1.29.5-1.95.75-.33.31-1.13.65-1.66s.6-1.2.91-1.77a5.45,5.45,0,0,1,1.14-1.71c.91-.77,1.71-1.68,2.56-2.52.23-.23.47-.66.68-.65.86.07,1.07-.81,1.73-1.08a11.4,11.4,0,0,0,2.58-1.31c.22-.15.61-.08.92-.08a1,1,0,0,0,.85-.27c.52-.58.82,0,1.16.27,1,0,1.91,0,2.87,0,.56,0,1.11-.05,1.48.49.7-.26,1.19.24,1.71.5s.81.74,1.26,1,.52.92.84,1.34a5,5,0,0,1,.71,3.54c0,.29-.51.37-.47.76s0,.48,0,.78c-.43.42-.89.86-1.34,1.31a9.29,9.29,0,0,1-3.82,1.81,7.07,7.07,0,0,1-2.45.44,1.22,1.22,0,0,0-1.53,1.07.79.79,0,0,1-.41.53c-.88.41-.19,1.58-1,2-.12.82.37,1.76-.48,2.44,0,.8.05,1.6,0,2.4s.79,1,.53,1.73a2.13,2.13,0,0,0,.41,1.73c.28.48-.21,1.27.46,1.72.08,1.41,1,2.45,1.49,3.71.24.65,1.09.91,1.06,1.72l1.35,1.36c-.09.79.68,1,1,1.49.19.25.46.63.68.62.78,0,.95.77,1.52,1a4.16,4.16,0,0,1,1.78.92c.9-.27,1.5.69,2.43.54a12.07,12.07,0,0,1,3.12,0c.76.08,1.2-.65,2-.54a12.86,12.86,0,0,0,2.15,0c.43-.7,1.18-.27,1.72-.48s1.06-.56,1.58-.83a7.87,7.87,0,0,1,1.61-.74c.2-.05.28-.4.59-.32.82.22,1.34-.82,2.17-.5a8.94,8.94,0,0,0,1.18-1.21c.38-.58,1.07-.61,1.52-1s.79-.79,1.19-1.19.8-.78,1.18-1.19.69-.18,1-.48c.92-.87,1.2-2.08,1.82-3.1a9.2,9.2,0,0,1,.85-1.57c.4-.45,1.17-.68,1.05-1.48s.54-1,.55-1.72.58-1,.46-1.71c.72-.33.17-1.22.68-1.63s0-1,.35-1.28.24-.9.66-1.19a.62.62,0,0,0,.18-.4c.05-.61-.19-1.29.49-1.72,0-.64.05-1.28,0-1.92s.7-1,.52-1.73a8.1,8.1,0,0,1,0-1.91c.84-1.12.37-2.42.46-3.64a1.36,1.36,0,0,1,.42-.8c.08-.1.13-.36.07-.43-.76-.8-.4-1.78-.46-2.69,0-.54-.68-.84-.51-1.49a6.19,6.19,0,0,0,0-1.43v-1.68a11.52,11.52,0,0,1,0-1.44c.08-.66-.65-1-.51-1.73a8.47,8.47,0,0,0,0-1.67c-.77-.51-.44-1.3-.43-2s-.71-.83-.54-1.49a4.73,4.73,0,0,0,0-1.4c-.76-.33-.09-1.25-.68-1.64a.55.55,0,0,1-.2-.64c.17-.67-.43-1.18-.43-1.72s-.45-1-.55-1.48-.57-.86-.5-1.48c0-.41-.57-.7-.53-1.21-.56-.27-.26-1.08-.85-1.33.22-.62-.75-.83-.51-1.47-.48-.24-.42-.78-.67-1.16a12.09,12.09,0,0,1-.76-1.36c-.23-.47-.36-1-.62-1.43s-.93-.65-.83-1.33a12.13,12.13,0,0,1-1.74-2.15,11.39,11.39,0,0,0-2-2.06,19.5,19.5,0,0,0-2.06-2c-.48-.36-1-.68-1.5-1s-1-.66-1.5-1-1.14-.39-1.6-.73-1.08-.51-1.58-.84-1-.35-1.38-.69-1.06-.05-1.29-.34c-.38-.48-1.09-.26-1.36-.82-.81.14-1.4-.49-2.16-.61s-1.24-.55-2-.43c-.49.07-.67-.62-1.25-.51-.42.08-1,.22-1.29-.32a.38.38,0,0,0-.18-.13c-.75-.15-1.61.39-2.25-.38l-2.11-.1c-.69,0-1.43.16-2-.48h-5c-1,.86-2.11.47-3.16.44-.76,0-1.2.67-2,.54a1.66,1.66,0,0,0-1.75.44c-.12.15-.63.09-.92,0-.7-.2-1.16.33-1.73.48s-1.12-.22-1.53.38a.51.51,0,0,1-.43.1c-1-.23-1.7.66-2.64.59-.31.53-.9.22-1.26.41s-.75.53-1.26.46-.68.68-1.24.47-.74.58-1.24.47-.85.39-1.25.45c-.56.07-.83.64-1.48.57a2.16,2.16,0,0,0-1.4.59c-.42.35-1.07.27-1.36.8-.55-.2-.75.44-1.24.52a5,5,0,0,0-1.38.69,5.11,5.11,0,0,1-1.39.68c-.75.12-.89,1.18-1.75,1-.35.55-1.18.42-1.49,1s-1,.32-1.36.82a2,2,0,0,1-1.24,1c-.58.1-.84.68-1.25,1-.57.51-1.35.7-1.85,1.34a6,6,0,0,1-1.7,1.68c-1.52.79-2.45,2.19-3.69,3.26-.65.56-.82,1.46-1.51,2a18.18,18.18,0,0,0-1.71,1.69c-.37.38-.35,1-.84,1.33a3.54,3.54,0,0,0-1.06,1.48c-.23.45-.78.71-.85,1.33,0,.25-.38.52-.65.67-.62.34-.68,1-1,1.53s-.39,1-.87,1.32-.2.91-.68,1.15c.14.61-.67.85-.55,1.45a5.79,5.79,0,0,0-1.41,2.06c-.34.66-.68,1.32-1,2a7.93,7.93,0,0,0-1,2.23c-.81.31-.27,1.15-.66,1.65a4.06,4.06,0,0,0-.76,1.36c-.15.57-.79,1-.52,1.72,0,.07-.19.23-.26.36a5.37,5.37,0,0,0-.65,1.4,1.62,1.62,0,0,1-.51,1.24,3,3,0,0,1-.73,2.09c-.26.38-.14.75-.25,1.1s-.46.54-.43.76c.1.63-.39,1-.5,1.49s-.68.84-.51,1.49c.12.45-.65.67-.47,1.24.11.34-.29.57-.32.81-.1.61-.76,1-.64,1.67s-.69.84-.48,1.48-.65.68-.48,1.24-.18.73-.47,1c.26.63-.76.83-.49,1.48s-.63.74-.46,1.24-.62.91-.48,1.48-.46.81-.47,1.24-.68.69-.51,1.25-.42.71-.43,1a5.28,5.28,0,0,1-.87,2.29c-.26.52-.1,1.22-.61,1.67.17.6-.38,1-.45,1.48s-.72.69-.51,1.24-.37.8-.51,1.23A4.32,4.32,0,0,1,164.57,370.37Z" transform="translate(-93.67 -204.08)"/><path class="cls-4" d="M447.06,474.71a4.74,4.74,0,0,1,2.7.44.62.62,0,0,0,.33.07,3,3,0,0,1,1.88.19c.54-.24,1.13-.06,1.67-.21a2.33,2.33,0,0,1,1-.09,3.38,3.38,0,0,0,1.58-.26,2.53,2.53,0,0,1,.89-.21c.69,0,1.16-.56,1.79-.78s1.35-.11,1.91-.48.79-.75,1.3-1.05c1.81-1.06,3.58-2.19,5.33-3.35.52-.34,1.13-.42,1.65-.8.29-.22.92,0,1.28.1a6.14,6.14,0,0,1,2.83,1.6,3.68,3.68,0,0,1,.8,3.74c-.09.27,0,.53-.1.77a3.58,3.58,0,0,1-1.21,1.63,46.16,46.16,0,0,1-4.63,3.3c-1.07.72-2.22,1.27-3.3,2a10.84,10.84,0,0,1-2,1,25.19,25.19,0,0,1-4.4,1.37,37,37,0,0,1-4.58.58,42.37,42.37,0,0,1-5.75-.33c-.46,0-.79-.4-1.32-.35s-.81-.42-1.31-.31c-1.25-.76-2.75-.91-4-1.64-.43-.25-.68-.7-1.19-.88s-1-.22-1.22-.82a7.13,7.13,0,0,1-2.21-1.59,19.37,19.37,0,0,1-2-1.89c-.54-.65-1.13-1.27-1.65-1.94a38.83,38.83,0,0,1-2.46-3.91c-.46-.77-.64-1.63-1.14-2.39s-.49-2-.85-2.92a.93.93,0,0,1,.14-1c-.06-1.06.74-1.79,1-2.72.34,0,.44-.42.78-.47a1.08,1.08,0,0,0,.63-.28c.51-.68,1.23-.62,1.93-.61.33,0,.67-.09.94.3a1.23,1.23,0,0,0,.84.34,3.29,3.29,0,0,1,2.29,1.8c.3.79.56,1.59.84,2.38a5.74,5.74,0,0,0,1.15,2.25c.15.15.14.47.3.62.39.39.25,1.1.64,1.34a4.79,4.79,0,0,1,1.13.94,7,7,0,0,0,1,1.05,11.08,11.08,0,0,0,2.66,1.94c.45.16.86.44,1.31.6A1.18,1.18,0,0,1,447.06,474.71Z" transform="translate(-93.67 -204.08)"/><path class="cls-5" d="M430.66,337.18a3,3,0,0,1,3.33,1.38c.26.33.69.57.79.94a1.39,1.39,0,0,0,.46.88c.37.25.3.75.55,1.06s.52.52.57.82c.09.5.48.65.67,1a6.78,6.78,0,0,1,.53,1.28c.1.4.37.68.49,1.09s.61.82.83,1.36a2.93,2.93,0,0,0,.93,1.54,14.16,14.16,0,0,0,.58,1.48c.12.44.69.57.74,1.19s.68.62.76,1.17.53.8.84,1.13.38,1.24,1,1.53.47,1,.82,1.37.93.78,1,1.51c0,.06.08.1.13.15.78.88,1.56,1.75,2.35,2.62.38,1.22,1.35,1.87,2.08,2.75s1.58,1.72,2.33,2.64c.25.3.66.11.8.45a4.93,4.93,0,0,0,.28.75c.27.48.83.27,1.11.75a6.45,6.45,0,0,0,.95,1.08c.32.34.56.8,1.08.77.55.62,1.09,1.26,1.66,1.85a9.49,9.49,0,0,0,2,2c.78.42,1.23,1.24,1.85,1.85s1.31,1.41,1.93,2.16c.39.47,1,.48,1.38,1.05a10.9,10.9,0,0,0,1.23,1.41,14.72,14.72,0,0,1,1.23,1.39c.33.5.92.4,1.24.9a10.85,10.85,0,0,0,1.09,1.25l1,1.08c.37.41.72.85,1.11,1.22s1.1.64,1.51,1.23a14.67,14.67,0,0,0,1.23,1.4c.46.51.93,1,1.37,1.54s1.19.75,1.65,1.37,1.1,1.24,1.65,1.86,1,1.11,1.51,1.7,1,.48,1.38,1.06a10.19,10.19,0,0,0,1.23,1.4l1.24,1.39,1.39,1.54,1.24,1.38c.41.47.83.93,1.24,1.39a11.83,11.83,0,0,0,1.26,1.37c.56.44.57,1.24,1.09,1.7a12.57,12.57,0,0,1,1.24,1.38c.29.35.3.91.7,1.21a3.31,3.31,0,0,1,.85,1.34c.19.42.59.67.71,1.22s.75.57.68,1.2c.83.7,1,1.86,1.55,2.78s.8,1.82,1.21,2.72a7.26,7.26,0,0,0,.78,1.61c-.11.54.59.75.4,1.35s.52.63.39,1.13a1.52,1.52,0,0,1,.4,1.35c.66.28.16,1.1.54,1.49s.17.95.25,1.42.49.62.41,1.14a1,1,0,0,0,.31,1.16.33.33,0,0,1,.07.18,3.44,3.44,0,0,0,.4,2.23c0,.51,0,1,0,1.53.07.75-.29,1.6.38,2.23,0,.51,0,1,0,1.53,0,.87,0,1.75,0,2.62,0,.46-.51.61-.4,1.14a7.14,7.14,0,0,1,0,1.31V443c-.15.23-.38.36-.4.71,0,.56.25,1.19-.15,1.67s0,1-.24,1.42-.22,1.11-.46,1.52-.16.83-.3,1.19-.43.67-.36,1.15-.55.62-.38,1.13a2,2,0,0,0-.45.89c-.11.3-.38.54-.32.94a.64.64,0,0,1-.18.57,6.84,6.84,0,0,0-1,1.93c-.26.52-.32,1.24-.9,1.56s-.58,1.22-1.08,1.69-1,1.13-1.51,1.7l-1.37,1.56a8.29,8.29,0,0,1-1,1.07c-.34.27-.8.34-1.06.79s-.74.19-.93.63-.74.46-1.09.76a5.82,5.82,0,0,1-1.11.64,4.05,4.05,0,0,0-1.11.65c-.35.37-.85,0-1.05.31s-.89.23-1.09.76c-.73-.2-1.23.73-2,.5-.38-.12-.55.25-.82.42s-.65-.16-.9.19a.55.55,0,0,1-.67.26c-.58-.22-.92.38-1.4.45s-.89.05-1.34.07c-.36.62-.93.31-1.41.39s-1.14-.22-1.62.38c-.12.15-.49.07-.74.07-1.75,0-3.5,0-5.25.05-.5,0-.79-.38-1.2-.44a8.82,8.82,0,0,0-1.36,0c-.41-.68-1-.36-1.59-.44-.35-.62-.91-.38-1.4-.42-.06,0-.16,0-.17,0-.22-.53-.79-.34-1.12-.73s-.89.09-1.16-.49c-.5.17-.69-.64-1.19-.47-.87-.75-2-1.05-2.86-1.74-.66.09-.73-1.05-1.43-.87-.27-.53-1-.35-1.22-.91s-.7-.28-.94-.62a2.45,2.45,0,0,0-1.08-.78c-.34-.14-.44-.71-.9-.74a.46.46,0,0,1-.32-.17c-.78-1.05-2-1.48-2.75-2.61-.26-.4-.81-.29-1.08-.76a6,6,0,0,0-.82-.93c-.83-.94-.83-.94-1.27-2.69-.05-.19-.25-.32-.37-.48a3.48,3.48,0,0,0,.53-.62c.29-.53,1-.39,1.23-.91.69.1,1.42-.25,2.06.19a1.34,1.34,0,0,0,.7.24c.48.05,1-.27,1.42.35a3,3,0,0,1,1.38.48c.4.27.81.65,1.39.48s.86.44,1.33.58c.16.05.25.3.48.27a2,2,0,0,1,.78,0c.22.07.4.32.62.4s.53,0,.75.09.34.4.65.36a.63.63,0,0,1,.69.23c.24.35.61.1.89.21s.44.56.82.42.61.46,1,.44a1,1,0,0,1,.87.28c.36.34,1,0,1.33.58.66-.19,1.21.37,1.79.37s.72.57,1.2.5a6.87,6.87,0,0,1,1.36,0c.49,0,1.05-.23,1.4.4l1.55,0c.61-.83,1.44-.34,2.17-.44a4.43,4.43,0,0,1,1.74,0c.67.19,1-.54,1.59-.49a4.42,4.42,0,0,0,1.74,0c.46-.14.87-.49,1.38-.46.27-.67,1-.14,1.33-.62s1.06.06,1.32-.63c.35-.1.77.15,1.06-.31.18-.3.59-.1.81-.46s.79.12,1-.33c.31-.62,1-.6,1.36-1.08.52-.65,1.09-1.25,1.64-1.87.27-1.12,1.17-1.65,1.77-2.46l.68-1.44c-.15-.7.39-1.13.55-1.71s.57-1,.56-1.47.61-.93.43-1.58c-.13-.45.48-.62.39-1.13a7.14,7.14,0,0,1,0-1.31c0-.15-.06-.39,0-.42.71-.49.09-1.42.52-1.95s.26-.7-.05-1.08a1.11,1.11,0,0,1,0-1c.35-1.21.44-1.59.23-2.21-.08-.24-.32-.4-.31-.74,0-.72,0-1.45,0-2.18-.56-.56-.29-1.33-.42-2s-.54-1-.37-1.58c-.49-.3-.38-.85-.42-1.33-.5-.31-.19-1-.45-1.31s-.19-1-.66-1.24a4.48,4.48,0,0,0-.7-2.09c-.24-.62-.53-1.21-.82-1.81s-.57-1.34-.89-2c-.05-.11,0-.29-.11-.38-.34-.43-.87-.78-1-1.27s-.42-.82-.55-1.29-.67-.79-.79-1.38c0-.18-.27-.31-.4-.47a15,15,0,0,1-1.7-2.26,16.07,16.07,0,0,0-2-2.33l-1.93-2.16-1.94-2.16-2.07-2.31-1.93-2.16-1.94-2.16-2.07-2.31c-.65-.72-1.34-1.39-1.92-2.17s-1.69-1.23-2.36-2.12-1.55-1.77-2.33-2.64l-2.21-2.46c-.74-.83-1.46-1.66-2.22-2.46-.49-.53-1.19-.74-1.64-1.38a16.8,16.8,0,0,0-1.37-1.56l-1.52-1.69c-.5-.57-1-1.13-1.52-1.7l-1.52-1.69-1.38-1.54-1.52-1.7-1.52-1.69-1.52-1.7-1.38-1.54a16.38,16.38,0,0,0-1.54-1.67c-.54-.46-.59-1.23-1.08-1.71a3.31,3.31,0,0,1-1.15-1.64c-.08-.37-.49-.69-.81-.92s-.17-.84-.54-1.07-.49-.79-.69-1.21a8,8,0,0,0-1.66-2.74c-.11-.1-.05-.45-.16-.57-.56-.58-.63-1.46-1.07-2.14s-.63-1.6-1-2.36a13.19,13.19,0,0,0-1-2.14c.08-.54-.59-.76-.41-1.36.14-.45-.53-.63-.39-1.12a1.47,1.47,0,0,1-.39-1.35c-.66-.28-.15-1.14-.56-1.49s.07-1.21-.54-1.5c0-.36-.07-.71-.09-1.06,0-.72,0-1.44-.07-2.16-.48-.42-.4-.78,0-1.24.14-.14.09-.56,0-.83C430,337.71,430.42,337.49,430.66,337.18Z" transform="translate(-93.67 -204.08)"/><path class="cls-6" d="M256.15,445c0,.82-.06,1.69,0,2.55.05.54-.59.7-.52,1.24a3,3,0,0,1-.09,1.16c0,.2-.31.36-.36.56-.15.67.24,1.41-.29,2s-.11,1.23-.19,1.84-.66.84-.51,1.48a8.56,8.56,0,0,1,0,1.68v3.6a7.15,7.15,0,0,1,0,1.67c-.15.66.74.82.54,1.49a4.83,4.83,0,0,0,0,1.42c.59.25.35,1,.82,1.36.22.18,0,.82.23,1.08.37.48.69,1,1,1.49a5.1,5.1,0,0,0,1.85,1.84c1,.48,1.86,1.31,3.12,1.18a13.63,13.63,0,0,1,2.39,0c.94.05,1.69-.82,2.69-.52.12,0,.34-.28.53-.42s.37-.45.74-.54a3.44,3.44,0,0,0,1.39-.66c.67-.56,1.26-1.23,1.88-1.85.12-1,.94-1.41,1.55-2,.37-.35.33-.9.67-1.16.55-.41,0-1.09.49-1.49a3.17,3.17,0,0,0,.9-1.3c.13-.35.42-.67.32-1.06-.17-.63.52-1,.45-1.48-.09-.65.46-1,.53-1.49,0-.14.11-.38.18-.38.81-.06,1.18-.73,1.65-1.22s.88-.22,1.2-.64c.13-.17.58-.12.89-.13a7.14,7.14,0,0,0,1.67,0,2.1,2.1,0,0,1,1.7.55,5.41,5.41,0,0,1,2,2.2,35.29,35.29,0,0,0,1.63,3.18c.31.48,0,1.24.62,1.65-.06.59.52.74.75,1.13a6,6,0,0,1,.67,1.4c.13.53.57.74.88,1.07a5.71,5.71,0,0,1,.7,1.15,9.49,9.49,0,0,0,1.31,1.39,5.9,5.9,0,0,0,1.31.88,7.79,7.79,0,0,0,1.52,1c.2.07.33.29.6.29,1,0,1.93.06,2.88,0,.49-.05.88-.55,1.49-.49.21,0,.49-.33.71-.55.52-.5,1.23-.93,1.47-1.54a5.62,5.62,0,0,1,1.07-1.48c0-.32,0-.64,0-1,0-.68-.2-1.43.48-2,.09-.6-.24-1.25.35-1.79.17-.15.12-.58.12-.89a25.16,25.16,0,0,0,0-2.88c-.07-.74.81-1.19.51-2,0-.05,0-.15.08-.2a13.3,13.3,0,0,0,1.34-1.37c.4-.54,1.05-.63,1.5-1,.23-.19.56-.24.64-.14.86,1,2,.2,3,.55.34.23.59.7,1.17.92a4.21,4.21,0,0,1,1.83,1.77c.11.18.13.45.27.6.66.69,1.35,1.36,2,2,.12,1,1,1.37,1.53,2,.37.42.79.8,1.19,1.19.68-.09.86.66,1.33.82.63.22,1.13.75,1.9.67a23.72,23.72,0,0,1,2.55,0c.7-.7,1.54-1.44,2.25-2.28a3.05,3.05,0,0,0,.88-2,18.45,18.45,0,0,1,0-2.88c.08-.7-.57-1.06-.53-1.72s.28-1.28-.33-1.78a.58.58,0,0,1-.12-.42c0-.48,0-1,0-1.44s-.45-.72-.52-1.24c-.09-.73-.63-1.39-.43-2.2s-.66-1-.5-1.73a8.44,8.44,0,0,0,0-1.67c-.89-.76-.38-1.78-.46-2.68a26.51,26.51,0,0,1,0-2.68c.32-.31.66-.66,1-1s1.08-.32,1.28,0c.42.63,1.2.68,1.69,1.18a9.61,9.61,0,0,1,1,1c.35.5.47,1.13,1,1.49s.58.88.88,1.31a11.92,11.92,0,0,1,1,1.5c.24.46.65.79.88,1.32s.71.95,1,1.5a4.26,4.26,0,0,0,.95,1.56,3.8,3.8,0,0,1,.78,1.57c.21.53.94.66,1,1.28s.71.68.49,1.24.61.75.47,1.23c-.2.65.48.93.5,1.49s-.21,1.12.38,1.52c.09.06.09.29.09.44,0,1,0,1.92,0,2.88s-.76,1.54-.47,2.44c-.72.36-.27,1.17-.63,1.65-.55.72-.64,1.71-1.36,2.32-.48.41-.47,1.12-1,1.51a13.34,13.34,0,0,0-1.2,1.18c-.45.45-.9.91-1.36,1.35-.16.17-.36.45-.53.44-.78-.06-.91.79-1.51,1a19.28,19.28,0,0,0-2,.94c-.55.26-1,.69-1.72.48s-.82.68-1.49.51a6.2,6.2,0,0,0-1.67,0c-.39,0-.63.74-1,.45-1-.8-2.12-.37-3.18-.43-.51,0-.68-.66-1.24-.51s-1.05-.49-1.72-.53-1.18-.63-1.78-.85a3.85,3.85,0,0,1-1.44-1.15c-.39-.41-1.06-.27-1.37-.81-.05-.07-.41,0-.64.15a2.86,2.86,0,0,0-.67,1.17c-.21.4-.77.54-.84,1.1a1,1,0,0,1-.35.56c-.68.64-.88,1.62-1.67,2.2a13.71,13.71,0,0,0-1.54,1.51c-.78-.09-1,.78-1.52,1a13.75,13.75,0,0,0-2.78,1.42c-.89-.24-1.52.83-2.41.51s-1.38.64-2.21.51a8,8,0,0,0-2.39,0c-.65.1-1-.5-1.49-.51s-1.11,0-1.66-.05c-.06,0-.12-.1-.17-.16-.33-.5-1-.05-1.28-.35-.64-.59-1.51-.67-2.17-1.17-.23-.17-.63-.16-.8-.36-.86-1-2.17-1.51-3.05-2.52a26.1,26.1,0,0,0-2.9-2.86c-.42-.35-.18-.93-.65-1.15-.72.41-.75,1.32-1.34,1.86a3.66,3.66,0,0,0-1.42,1.8,1.58,1.58,0,0,1-1,1,4,4,0,0,0-1.66,1.23c-.41.38-.73,1-1.2,1.14-.63.24-1,.8-1.5,1a21.13,21.13,0,0,1-2.21,1c-.5.14-.84.63-1.48.52-.42-.08-.68.61-1.24.46s-.82.69-1.48.49a1.17,1.17,0,0,0-1.28.38c-.15.17-.6.08-.92.08h-6a1.87,1.87,0,0,1-1.28-.42c-.4-.29-1.16.18-1.56-.23s-.9-.19-1.2-.64c-.14-.2-.53-.23-.8-.35a28.91,28.91,0,0,0-2.8-1.36c-1-1-2-2-3.06-3-.46-.44-.48-1.11-1-1.52s-.54-1.29-1.2-1.66c-.1-.59-.6-1-.69-1.63,0-.2-.43-.43-.38-.54.27-.72-.63-1.13-.48-1.72s-.63-.87-.53-1.49a4.69,4.69,0,0,0,0-1.67c-.13-.58-.6-1-.48-1.73a12.3,12.3,0,0,0,0-1.92v-1.68c0-.64,0-1.28,0-1.92a1.28,1.28,0,0,1,.49-1.24c-.13-.65.7-1,.52-1.73a4.37,4.37,0,0,1,.92-3.67c0-.55.72-.85.49-1.48a.46.46,0,0,1,.14-.41c1.1-.81,1-2.41,2.2-3.18,0-.64.47-.94.85-1.32s.9-.91,1.35-1.36c.64.26.83-.76,1.47-.51.23-.49.79-.41,1.16-.67a3.09,3.09,0,0,1,1.37-.7C255.09,444.4,255.57,444.78,256.15,445Z" transform="translate(-93.67 -204.08)"/><path class="cls-7" d="M100.92,432v-1.47c.81-.36.14-1.41.85-1.81,0-.69.83-1.15.58-1.92a5,5,0,0,0,.63-1.18c.24-.46,1-.66.8-1.34s.76-.84.5-1.49c-.08-.21.07-.42.19-.64,1.28-2.26,2.23-4.69,3.58-6.91,0-.73.63-1,1-1.5v-1a9.49,9.49,0,0,0,1.33-1.36c.33-.48.37-1.16.73-1.6s.31-1.25,1-1.53c.13-.06.32-.26.29-.34-.23-.88.49-1.25.88-1.82a9.42,9.42,0,0,0,.7-1.62c.09-.2.29-.37.35-.57.49-1.64.44-1.69,1.36-2.55.48-.44.54-1.09,1-1.54.17-.17.07-.6.1-1.16a9,9,0,0,0,1.26-1.15c.31-.39.37-1,.65-1.4a10.45,10.45,0,0,1,1.07-1.24,9.59,9.59,0,0,0,.83-1.82,3.85,3.85,0,0,1,.87-1.79,12.15,12.15,0,0,1,1.19-1.19c.43-.36.29-1.05.82-1.34-.16-.61.69-.85.53-1.46.67-.57.59-1.58,1.21-2.13s.68-1.38,1.33-1.87c.44-.32.3-1.05.86-1.32s.3-1,.83-1.35a11,11,0,0,0,1.21-1.16c.28-.24.2-.56.29-.84a4.05,4.05,0,0,1,.88-1.8c.52-.49,1-1,1.5-1.53,0-.84.84-1.09,1.22-1.66s.58-1.55,1.18-2.15c-.13-.76.39-.72.88-.7a2.26,2.26,0,0,1,.43.11,1.39,1.39,0,0,1,.12.43c0,1.2,0,2.4,0,3.6,0,.08,0,.18,0,.24-.53.82-.47,1.95-1.1,2.64-.47.51-.09,1.12-.48,1.5s-.29,1.06-.82,1.34c.18.62-.7.85-.53,1.47-.58.25-.27,1.07-.85,1.32.13.82-.42,1.44-.7,2.11a8.76,8.76,0,0,1-1,2c-.36.45,0,1-.34,1.29-.48.38-.25,1.1-.82,1.36.11.54-.42.78-.55,1.21a3.81,3.81,0,0,1-.66,1.39c-.34.36-.17,1-.66,1.19-.25,1.9-1.5,3.37-2.23,5.07s-1.58,3.18-2.39,4.77a5.86,5.86,0,0,1-.73,1.4c-.24.27.11.94-.42,1.25-.83,1.9-1.83,3.71-2.71,5.59a14.51,14.51,0,0,1-.87,2.28c-.47.68-.66,1.51-1.18,2.15-.35.45.09,1.06-.47,1.51-.35.29-.39.94-.64,1.39a2.61,2.61,0,0,0-.5,1.49c0,.33-.58.52-.45,1-.54.37-.4,1.17-1,1.52a2.75,2.75,0,0,1-.43,1.5c-.2.54-.86,1-.53,1.7a3.56,3.56,0,0,0-.6,1.2c0,.2-.38.42-.34.56.21.7-.61,1.08-.5,1.73.06.35-.23.57-.31.83a6,6,0,0,1-1,2.45c.12.87-.73,1.52-.56,2.4-.6.45-.37,1.13-.51,1.72s-.66,1.05-.45,1.72c-.8.31-.21,1.21-.69,1.64s-.14,1.06-.28,1.57-.59.69-.49,1.24a1.36,1.36,0,0,1-.38,1.29c-.2.22-.14.77-.06,1.15.13.62-.38,1-.49,1.48s.21,1.12-.33,1.55c-.06.05-.15.11-.15.17a17.57,17.57,0,0,0,0,1.92c.06.66-.57,1-.54,1.73,0,1,.43,2.19-.41,3.17-.16.19,0,.62,0,.94,0,4.24,0,8.48,0,12.72,0,.53-.19,1.11.38,1.54.13.09.07.44.09.67,0,.62.06,1.25.1,1.88.66.46.11,1.29.42,1.73a3.11,3.11,0,0,1,.44,2c.89.32.1,1.42.83,1.81a4.49,4.49,0,0,0,.62,1.9c.66,1.08,1.1,2.28,1.75,3.36.15.25.16.64.36.8.74.61,1,1.57,1.67,2.21,1.41,1.3,2.73,2.7,4.09,4.06.17.17.34.49.51.48.77,0,1,.76,1.52,1,.2.08.46,0,.63.22s.28.28.36.25c.71-.28,1.14.6,1.72.47s.88.62,1.49.53a11.76,11.76,0,0,1,1.68,0,25.26,25.26,0,0,1,3.59,0c.88.13,1.38-.67,2.21-.54a15.56,15.56,0,0,0,2.16,0c.5-1,1.73,0,2.29-.84a3.2,3.2,0,0,1,2.26.1c.2.1.43.28.61.24,1.43-.31,2.42.76,3.63,1.12.16.52,1,.08,1.05.72s.69.83.51,1.48a5.88,5.88,0,0,0,0,1.19c0,.13-.25.23-.27.37-.14.59-.6,1-.74,1.62-.09.4-.63.69-1,1s-.64.9-1,1c-.78.14-1,1-1.71,1.09-.49.07-.68.69-1.24.51s-.69.38-1,.44a3,3,0,0,0-1.5.48c-.3.23-.87-.05-1.28.39s-1.12-.13-1.46.53c0,.08-.28.05-.43.08-.6.1-1.24-.18-1.82.25s-1.37.18-2.06.22-1.28,0-1.92,0h-1.92c-.56,0-1.13,0-1.68,0s-.68-.63-1.25-.51a6.82,6.82,0,0,1-1.43,0c-.37-.56-.93-.51-1.48-.49-.32-.78-1.13-.32-1.66-.65a7.56,7.56,0,0,0-1.58-.8c-.49-.17-.89-.57-1.37-.74s-1-.73-1.64-.7c-.65-.9-1.9-1.08-2.51-2-.48-.76-1.49-.8-2-1.52a22.16,22.16,0,0,1-2-2.29,11.1,11.1,0,0,0-2.09-2.26c-.34-.33-.19-.93-.67-1.16s-.44-1-.84-1.34-.81-.56-.69-1.15c-.49-.23-.39-.81-.67-1.16a1,1,0,0,1-.25-.61c.09-.57-.31-.83-.59-1.21a3.22,3.22,0,0,1-.88-2.27c0-.22.11-.5-.16-.65-.45-.26-.26-.85-.64-1.2-.22-.19,0-.85-.23-1.06-.4-.4-.28-.88-.43-1.28-.22-.56-.84-1,0-1.55-.79-.33-.2-1.18-.62-1.64-.1-.12-.29-.23-.3-.35a13.67,13.67,0,0,1,0-1.92c.07-.66-.77-1-.53-1.73a1.37,1.37,0,0,0-.33-1.54c-.21-.19-.11-.74-.11-1.13,0-3.84,0-7.68,0-11.52,0-.6-.26-1.29.41-1.75.05,0,.06-.14.06-.21v-2.16c.64-.54.47-1.28.48-2s0-1.28,0-1.92c.83-.36.13-1.41.82-1.83a.26.26,0,0,0,.13-.18,11.59,11.59,0,0,1,0-1.67c.09-.51.67-.89.45-1.49s.55-.9.5-1.48a9.89,9.89,0,0,1,0-1.44c0-.13.17-.24.25-.37a3.3,3.3,0,0,0,.68-2.59c-.19-.67.77-.83.51-1.48s.66-.84.54-1.47c0-.19.42-.39.42-.77s-.13-1.06.37-1.55c.33-.33-.1-1.11.53-1.44A2,2,0,0,1,100.92,432Z" transform="translate(-93.67 -204.08)"/><path class="cls-5" d="M310.19,370.53l-.94-1c-.09-.55.27-1.2-.21-1.59s0-1.13-.5-1.49c-.31-.22-.26-.54-.26-.85,0-2.16.07-4.32,0-6.48,0-.7.72-1,.54-1.73a5.19,5.19,0,0,1,0-1.67c0-.19.38-.34.41-.54.08-.67.82-1.16.55-1.94a.53.53,0,0,1,.14-.65c.46-.33.42-1,.76-1.38s0-.85.4-1.27.34-1,.62-1.41c.47-.68.64-1.59,1.43-2v-1.46c.54-.68,1.42-1.06,1.54-2a4.24,4.24,0,0,0,1.31-2.09c.2-.48.66-.67.88-1.08s.14-.75.52-1c.63-.39.58-1.24,1.18-1.68a8.21,8.21,0,0,0,1.35-1.35c.48-.59,1.38-.87,1.39-1.83,0-.08.23-.18.36-.24a11.29,11.29,0,0,0,1.42-.62,8.81,8.81,0,0,0,1-1,3.71,3.71,0,0,1,1.31-.89c1.2-.47,1.16-.56,2,.23l.55.55a3.66,3.66,0,0,0,.05.64c.23,1.05-.6,1.88-.6,2.88-.71.4,0,1.47-.84,1.81.05.7-.8,1.18-.51,1.94-1,1-.85,2.55-1.71,3.61-.4.49.14,1.34-.66,1.65.1.64-.69,1-.51,1.72,0,.15-.31.37-.32.56-.05.63-.75,1-.62,1.68s-.71.84-.48,1.48c.16.46-.49.57-.48,1s.1.79-.3,1.08a.59.59,0,0,0-.17.4c0,.4,0,.8,0,1.2-.85.33-.13,1.39-.84,1.82-.09,0-.12.27-.11.42a3,3,0,0,1-.44,1.74c-.28.48.21,1.27-.47,1.72l-.06,1.89c.7.62.31,1.48.52,2.19a7.43,7.43,0,0,0,1.14,2.39,8.42,8.42,0,0,0,3.65,2.74c.14.05.26.18.4.2.59.08,1.29-.21,1.72.47l1.67,0h8.4c.77-.35,1.24.53,2,.51.17,0,.33.39.53.43.68.15,1.13.45,1.14,1.21.8.44.2,1.52.94,2,.14.09.11.75,0,.88-.54.44-.36,1-.42,1.53a.91.91,0,0,1-.24.6c-.73.52-.74,1.56-1.52,2-.16.83-1,1.2-1.32,1.86s-1.15,1.28-1.52,2a8.94,8.94,0,0,1-1.39,1.82c-.35.39-.37,1-.85,1.33s-.4,1.14-1,1.51a2,2,0,0,0-.9,1.29c-.12.48-.79.66-.89,1.32-.05.38-.57.75-1,1s-.37.83-.66,1.18-1.1.74-1.2,1.42-1.17.88-1,1.74a4.73,4.73,0,0,0-1.07,1.48c-.21.51-.71.94-1,1.5a4.92,4.92,0,0,1-.94,1.55,3.4,3.4,0,0,0-.8,1.57c-.17.59-1.07.74-1,1.52-.53.29-.46.93-.8,1.36s-.35,1.19-.73,1.59a15.7,15.7,0,0,0-1.54,2.48c-.42.6,0,1.47-.77,1.85-.17.89-.83,1.57-1.05,2.44-.72.4-.05,1.45-.85,1.81.1.65-.71,1-.51,1.71,0,.11-.1.27-.17.41-.25.53-.5,1.07-.78,1.59s-.81,1-.86,1.55-.76.84-.58,1.45c-.56.35-.42,1.15-1,1.52.08.89-1.16,1.06-1.06,2,0,.05-.12.15-.17.14-.78-.09-.93.83-1.53.95-.35.07-.81.17-1.08-.24a6.23,6.23,0,0,1-.92-1.53c-.16-.51.08-1.14-.07-1.66s-.57-.9-.45-1.49-.25-1.41.42-2c.16-.15.06-.61.06-.92,0-1.36,0-2.72,0-4.08,0-.62-.28-1.35.13-1.84s.25-1.2.33-1.79c.67-.44.46-1.11.48-1.72,0-.4-.12-.86.05-1.18s.5-.57.47-1c.49-.29.44-.77.45-1.25s.61-.53.47-1c-.21-.68.58-1,.54-1.73,0-.51.51-1,.73-1.59a6.36,6.36,0,0,1,2.06-3c.5-.36.39-1,.83-1.35s.76-.59.68-1.15c.36-.24.37-.64.54-1a2.33,2.33,0,0,1,.83-.85c.61-.41.51-1.27,1.16-1.7s.88-.94,1.38-1.31.31-1,.82-1.38c.24-.17-.19-.83.2-1.08.7-.46.69-1.38,1.34-1.86a5,5,0,0,0,1.21-1.65c.34-.59,1.16-.84,1.17-1.68.45-.45.91-.89,1.35-1.36a.54.54,0,0,0,0-.45c0-.12-.22-.31-.31-.29-1.12.24-2-.68-3.16-.52-.34,0-.52-.57-1-.46a1,1,0,0,1-1-.45c-.65.09-1-.73-1.71-.51-.07,0-.2,0-.23,0-1.06-1.26-2.89-1.46-3.87-2.86a10.62,10.62,0,0,0-1.86-1.87c-.72-.62-.91-1.61-1.66-2.22C310.1,371.35,310.21,370.88,310.19,370.53Z" transform="translate(-93.67 -204.08)"/><path class="cls-4" d="M308.15,291.05c.39-.28.8-.22.94-.6a.59.59,0,0,1,.2-.32c.64-.41,1.57-.3,2-1.13l2-.86c.74-.3,1.5-.55,2.22-.88.4-.19.72.25,1.11,0a2.08,2.08,0,0,1,1.1-.41,1.87,1.87,0,0,0,1.3-.12,1.19,1.19,0,0,0,1.28-.08c.45.37.87.06,1.29-.05.37.38.91-.1,1.28.25,1-.46,2,.28,2.95-.24a8.2,8.2,0,0,0,2.2.28,16.07,16.07,0,0,0,2.93.22c.6,0,1,.63,1.65.27.45.28,1,0,1.46.33s.76-.07,1.11.16a6.77,6.77,0,0,0,.91.4c.06,0,.12.08.18.07a7,7,0,0,1,1.65.12c.56.06,1,.64,1.66.43.21-.06.6.22.81.44a1.93,1.93,0,0,0,1.51.7c.52,0,.89.44,1.27.34.54-.13.87.17,1.29.29a4.52,4.52,0,0,1,1.26.81c.46.35,1.13.42,1.6.76a11.56,11.56,0,0,1,1.23.85,10.25,10.25,0,0,1,1.71,1.65,5.46,5.46,0,0,1,1.08,1.75c.07.31.38.31.57.46a.4.4,0,0,1,.12.52c-.28.41,0,.74.13,1.12-.13.29-.26.59-.4.89l-1,1.12c-.48.17-.95.48-1.47.15a4.05,4.05,0,0,1-2.39-.45c-.71-.34-1.45-.63-2.18-.95l-1.28-.55c-.57.29-1-.17-1.46-.33s-.85-.5-1.28-.51a6.53,6.53,0,0,1-2.37-.76c-.36-.15-.76.13-1.1-.16s-.73-.13-1.1-.18-.65-.34-1.1-.31-.86-.33-1.27-.28-.74-.19-1.1-.29-.77.13-1.1-.16c-.42.36-.87-.3-1.29.05-.33-.29-.75,0-1.1-.17s-.77.13-1.1-.17c-.38.29-.72-.11-1.1,0s-.62-.09-.91,0-.73-.34-1.11,0c-.52-.5-1.13.37-1.65-.11-.54.17-1.15-.29-1.66.17-.58-.45-1.25.31-1.84-.13a2.78,2.78,0,0,1-.92.34,2.89,2.89,0,0,0-1.48.16,10.65,10.65,0,0,1-1.48.6l-1.37.54c-.52.49-.21,1.06-.41,1.53s.1.65.24.91c.39.7,0,1.5.4,2.22a16.78,16.78,0,0,1,.9,2.19c.17.4.2.87.75,1.08.22.08.29.55.42.84s.25.8.52,1a1.41,1.41,0,0,1,.59.71c.11.39.27.74.73.82,0,.74,1,.83,1.05,1.53,0,.32.44.24.59.44.64.84,1.57,1.37,2.27,2.14.15.17.44.24.5.53,0,0,.11.07.17.09a3.36,3.36,0,0,1,1.25.82,7,7,0,0,0,1.07.5c.26.15.44.46.71.58,2.48,1.1,5,2.16,7.46,3.24a6.79,6.79,0,0,1,3.09,1.06c.55.24,1.14,0,1.68.35a3.39,3.39,0,0,0,1.62.7,7.89,7.89,0,0,1,2.55.84c.8.31,1.56.75,2.38,1,1,.31,1.55,1.26,2.42,1.76.13.07.11.49,0,.53a1.32,1.32,0,0,0-1,.82.39.39,0,0,1-.35.1,1.08,1.08,0,0,0-.93,0c-.47.17-.92.61-1.47.23a4.1,4.1,0,0,1-1.48.13c-.36,0-.74-.37-1.1,0s-.88-.33-1.29.07c-.37-.28-.73,0-1.1,0a13.63,13.63,0,0,1-2.2-.2c-1.22-.14-2.46-.11-3.67-.35-.66.36-1.17-.55-1.83-.22-.51-.29-1.11-.1-1.67-.33s-1.14-.13-1.62-.46-1,0-1.48-.29a15,15,0,0,0-1.63-.73,2.4,2.4,0,0,0-1.46-.32c-.57-.41-1.46-.29-1.79-1.07l-2-.87c-.17-.5-.69-.53-1-.78a3.22,3.22,0,0,1-.92-.88c-.3-.48-1-.28-1.25-.85a2.24,2.24,0,0,0-1-.81c-.35-.2-.28-.59-.5-.8s-.62-.23-.66-.64c-.52,0-.6-.61-1-.78s-.23-.91-.85-1a.26.26,0,0,1-.12-.13c-.17-.35-.25-.8-.52-1a1.41,1.41,0,0,1-.59-.71,1.44,1.44,0,0,0-.7-.86c-.28-.17-.31-.69-.48-1.05s-.23-1.19-1-1.35l-.58-1.47c-.94-.31-.82-1.26-1.16-1.92a19.13,19.13,0,0,1-.87-2.21.65.65,0,0,1,0-.36,3.28,3.28,0,0,0-.26-2.38c-.11-.23-.28-.6-.19-.72.43-.52-.36-1,0-1.48.15-.19,0-.36,0-.55s-.15-.43-.08-.54c.4-.56.17-1.25.43-1.83-.36-.6.56-1,.21-1.64a4.2,4.2,0,0,1,.42-.85,14.39,14.39,0,0,0,1-1.09A5.72,5.72,0,0,0,308.15,291.05Z" transform="translate(-93.67 -204.08)"/><path class="cls-5" d="M355.73,293c-.17-.59-.34-1.17-.52-1.75.29-.59.81-1.12.42-1.87-.05-.09,0-.37.09-.39.8-.21.74-1.09,1.21-1.53a9.5,9.5,0,0,0,1.21-1.15,12.8,12.8,0,0,1,2-2.18c.74-.64,1.38-1.41,2.18-2,.18-.76,1.32-.42,1.42-1.26.62-.08.75-.9,1.43-.91.42,0,.32-.66.78-.71a2.37,2.37,0,0,0,.87-.26c.22-.12.35-.44.57-.53s.41.21.6.18.67-.14.78-.34a1.16,1.16,0,0,1,.88-.6c.48-.08.47-.68,1-.8,1.33-.31,2.63-.75,3.94-1.13,1.11.63,2-.34,3-.42.59,0,1.12-.61,1.72-.3s1-.21,1.5-.15c.77.09,1.53.23,2.28.39a1.44,1.44,0,0,0,1.06,0,2.49,2.49,0,0,1,1.88.13,5.9,5.9,0,0,0,1.65.48,3.56,3.56,0,0,1,1.84.63c1.2.66,2.38,1.35,3.6,2a4.92,4.92,0,0,1,2,1.65c.28.43.76.46,1.07.76s.56.85.95,1.11c.54.36.58,1.05,1,1.35s.5,1,1.09,1.05c.07,0,.08.27.15.41.16.32,0,.82.45,1s.37.81.67,1.08a6,6,0,0,1,.73.78,3.54,3.54,0,0,0,1.71,1.3,11.2,11.2,0,0,0,2.7.44c.5-.43,1,.41,1.47,0s.87.33,1.25.09c.54-.33,1,.15,1.49.07.19,0,.43.2.61.16a5.66,5.66,0,0,1,3.16.14c.5-.35,1,.11,1.47,0s.81.46,1.26.13a2.2,2.2,0,0,0,1,.24,5.24,5.24,0,0,1,1,.19c.68.27,1.46.2,2.06.7s1.28.14,1.84.62a8.78,8.78,0,0,0,1.59.89c.6.33,1.21.63,1.79,1s1.08.41,1.37,1.06c.19.41.94.34,1.18.94s1,.37,1.18.92.82.44.79,1c.84.1.5,1.25,1.26,1.42.22.61,1.06.82,1,1.59.63.28.64.93.93,1.42a5.29,5.29,0,0,1,.95,1.67c.16.74.41,1.46.63,2.18l.58,2c.19.65.39,1.31.57,2a.53.53,0,0,1,0,.41c-.54.7.38,1.35,0,2.14s-.07,1.58-.56,2.23c-.35.46,0,1-.39,1.47a8.41,8.41,0,0,0-.67,1.18c-.2.3-.21.73-.65.87s-.47.73-.76,1.06-.54.45-.79.7a19.66,19.66,0,0,0-2.26,2.21c-.66.14-.86,1-1.66,1-.6,0-.56.85-1.22.85a1.3,1.3,0,0,0-1.09.66c-.2.29-.8.33-1.22.48-.82.29-1.75.31-2.32,1.14a.7.7,0,0,1-.63.19c-.86-.46-1.59.09-2.41.24l-2-1.14c-.09-.43-.51-.92-.26-1.42s0-1,.38-1.46.15-1.13.52-1.63a6.22,6.22,0,0,0,.87-1.6c.26-.74,1-1,1.35-1.71a3.27,3.27,0,0,1,1.27-1.77c.28-.15.41-.62.55-1a6.83,6.83,0,0,0,.21-1c.47,0,.58-.42.76-.74.24-.47.71-1,.67-1.4s.45-1,.16-1.48c.45-.5.08-1,0-1.48s-.85-.58-.85-1.22a1,1,0,0,0-.73-1c.05-.78-.85-1-1-1.64-.5-.08-.55-.67-.93-.86-.93-.47-1.49-1.45-2.52-1.76a2.27,2.27,0,0,1-.41-.21c-.6-.32-1.19-.64-1.8-.95-.05,0-.15.07-.21.05a24.24,24.24,0,0,1-2.69-.57c-.76.41-1.59-.29-2.35.15a1,1,0,0,1-.84,0,2.41,2.41,0,0,0-1.44-.2c-.57.23-1-.25-1.49-.08a2,2,0,0,1-1-.05c-2-.29-3.87-.71-5.82-1a4.15,4.15,0,0,1-1.64-.52c-.36-.22-.72-.62-1.23-.32a5.76,5.76,0,0,0-.73-.75c-.37-.26-.83-.4-1.19-.68s-.45-.74-.93-.86-.49-.59-.75-.73c-.49-.25-.47-.73-.72-1.06s-.6-.58-.86-.93c-.08-.11-.33-.12-.37-.23-.17-.42-.15-1-.44-1.26a1.79,1.79,0,0,1-.75-1,2.19,2.19,0,0,0-.36-1.06,5.78,5.78,0,0,0-.72-.75c-.69-.44-.93-1.32-1.64-1.65s-1-1.05-1.72-1.34-1.06-.58-1.61-.85c-.11-.06-.29,0-.41,0a15.14,15.14,0,0,0-3.51-.86,2.61,2.61,0,0,0-1.7,0c-.59.28-1.24-.3-1.92.08a9.41,9.41,0,0,1-1.95.6,19.25,19.25,0,0,0-2,.6c-1,.42-2.28.22-3,1.33,0,.05-.14.05-.22.07a8.51,8.51,0,0,1-1.74.48c-.64.05-.69.72-1.22.89s-1.39.11-1.69.9l-1.71.55c-.38.8-1.2.78-1.88,1-.47.18-.59.81-1.21.86a4.38,4.38,0,0,0-1.52.46c-.22.1-.24.48-.57.62A3.86,3.86,0,0,1,355.73,293Z" transform="translate(-93.67 -204.08)"/><path class="cls-8" d="M428.77,638.25a11.89,11.89,0,0,1,1.69-.89c1-.33,1.48-1.38,2.45-1.74a.5.5,0,0,0,.25-.36,1.19,1.19,0,0,1,.88-1c.07,0,.13-.08.21-.11,1.23-.39,1.93-1.46,2.79-2.31.46-.46.61-1.15,1.32-1.51a8.16,8.16,0,0,0,1.4-1.13c.9-.77,1.58-1.77,2.5-2.53,0-.79.6-1,1.17-1.34a4.1,4.1,0,0,0,1.87-2.18c.11-.33.37-.47.56-.69A17,17,0,0,1,448,620.2c.45-.38.31-1,.85-1.34a2.39,2.39,0,0,0,1.15-1.32c.63-.07.59-.92,1.19-1a5,5,0,0,1,1.47-2,11.66,11.66,0,0,1,1.55-1.59c.44-.3.15-1,.69-1.16s.54-.69.95-1,.24-1,.55-1.23c.53-.41.67-1,1-1.46.18-.23.53-.32.57-.68.09-.81.9-.79,1.36-1.18.09-.31.21-.61.27-.92a2.61,2.61,0,0,1,.85-1.32,4.13,4.13,0,0,0,1.11-1.69c.2-.68,1-1.14,1-2,.87-.22.58-1.47,1.48-1.65.21-.4.13-.92.69-1.17s.36-.84.55-1.26.78-.47.84-1a1.15,1.15,0,0,1,.7-1.14c.15,0,.21-.39.3-.6.44-1,.35-2.36,1.43-3.12l.48-1.61c1.12-.64,1-1.88,1.35-2.89,1.26-4,2.46-8.11,3.65-12.18.18-.64.73-1.3.13-2,.28-.54.06-1.32.81-1.62a.49.49,0,0,0,.3-.56c-.42-.55-.15-1,0-1.58a1.62,1.62,0,0,0,.05-1.35.9.9,0,0,1,.47-1.18c.29-.14.26-.3.11-.5a.59.59,0,0,1,0-.67c.35-.6.1-1.18.05-1.79,0-.25,0-.47-.23-.57s-.53-.09-.74.29a6.54,6.54,0,0,1-1,1.14c-.1.11-.33.18-.34.28-.16,1.2-1.3,1.9-1.49,3.12a2.41,2.41,0,0,1-1,2c-.25.14-.28.7-.39,1.08-.22.69-.42,1.38-.63,2.07-.71.25-.76.92-.95,1.51s-.41,1.38-.62,2.07c-1.14.54-.84,1.78-1.29,2.66-.25.48-.1,1.18-.65,1.46s-.49.78-.64,1.2-.33,1.07-.49,1.61c-1,.69-1,1.88-1.34,2.89-.18.56-.91.59-.94,1.27a6.67,6.67,0,0,1-.45,1.61c-.92.46-.85,1.43-1.16,2.2-.84.4-.86,1.25-1.08,2-.15.47-.79.46-.85,1s-.1.94-.68,1.16-.17.91-.69,1.15a.72.72,0,0,0-.42.49c-.09,1-1.13,1.44-1.33,2.36-.59.15-.48.79-.76,1.09a2.82,2.82,0,0,0-.82,1.07c-.1.32-.53.52-.7.84a4.71,4.71,0,0,1-.62.93,5.8,5.8,0,0,0-1.11,1.64c-.19.6-.9.68-.93,1.26s-.68.64-.81,1.06-.89.46-.83,1-1,.59-.9,1.27c-.54.15-.69.59-.81,1.06,0,.13-.19.23-.31.32-1.09.81-1.42,2.3-2.66,3,0,.69-.55,1.06-1,1.5s-.64.89-1.08,1.1-.31,1-.88,1.32a4.75,4.75,0,0,0-1.09,1.1c-.35.38-.62.89-1,1.13s-.49.75-.94,1-.67.77-1,1.15-.74.73-1.1,1.1-.69.78-1.07,1.14a9.17,9.17,0,0,1-1.45,1.4,8.73,8.73,0,0,0-1.32,1.2c-.54.51-.88,1.24-1.63,1.53-.15.06-.34.13-.4.24-.65,1.34-2.28,1.72-2.92,3.05-.76.27-1.15,1-1.82,1.37s-.78,1-1.39,1.16-.76.94-1.39,1.18-1.21.41-1.41,1.12a6.85,6.85,0,0,0-2.08,1.45c-.46.57-1.32.68-1.84,1.37-.39.52-1.26.66-1.84,1.07a9.2,9.2,0,0,1-1.83,1.37,9.12,9.12,0,0,0-1.89,1,9.93,9.93,0,0,1-1.83,1.37,23.8,23.8,0,0,0-2.12,1.12L406.65,646l-2.12,1.13-2.11,1.14a23.81,23.81,0,0,0-2.1,1.16c-.48.33-1,.22-1.52.43s-1.13.59-1.69.9-1,.74-1.48.75a6.1,6.1,0,0,0-2.57,1.06c-.55.28-1.22,0-1.75.51a2.05,2.05,0,0,1-1.5.5,2.24,2.24,0,0,0-1.25.65c-.41.34-.9,0-1.33.29a10.06,10.06,0,0,1-1.47.73c-.72-.33-1.07.63-1.73.48s-1,.65-1.49.51c-.82-.26-1.23.79-2,.46-.56.27-1.12.57-1.7.81-.41.17-.92-.05-1.31.32s-.7.19-1.08.24-.86.5-1.28.49a1.53,1.53,0,0,0-1.07.38c-.37.32-.76,0-1.11.18a3.33,3.33,0,0,1-1.51.49c-.56,0-1.06.52-1.73.53-.49,0-.89.69-1.51.4a7.15,7.15,0,0,1-2.59.94,18.53,18.53,0,0,0-2.35.93c-.18.09-.45,0-.66,0s-.36.32-.37.54.19.4.45.44.54.21.66.12c.48-.35.9-.15,1.35,0a8.55,8.55,0,0,1,1.15.36c.44.21.71-.28,1.1-.19s.73.35,1.12,0,.78.17,1.09-.21c1,.07,2-.53,3.1-.29a3.66,3.66,0,0,0,1.73-.4c.36-.11.66-.46,1.09-.21.38-.35.92-.1,1.3-.31s.75,0,1.12,0a.56.56,0,0,0,.43-.08c.68-.61,1.7-.26,2.38-.87a.46.46,0,0,1,.42-.06c.67.41,1.37-.33,2,.08a.42.42,0,0,0,.42-.06c.55-.55,1.4-.21,1.94-.66s1.23-.09,1.74-.53,1.39-.11,1.94-.65c.35-.34.88,0,1.32-.29.26-.16.86.25,1.09.09.79-.56,1.83-.37,2.6-1a7.72,7.72,0,0,1,1.47-.8c.48-.22.88-.73,1.51-.45a7.76,7.76,0,0,1,1.49-.76c.58-.17,1.25-.14,1.71-.58s1.19-.25,1.73-.54l1.69-.91c.57-.3,1.12-.62,1.69-.91s.91-.63,1.52-.45c.06,0,.19-.21.29-.32.34-.38.68-.78,1-1.15a.85.85,0,0,1,.42-.22,6.3,6.3,0,0,1,1.53-.23,1,1,0,0,0,.85-.32c1.26-1.39,3.1-1.83,4.58-2.85.37-.26,1,.3,1.17-.43.14-.51.73-.56,1.13-.77a3.79,3.79,0,0,0,1-.91,2.9,2.9,0,0,1,1-.59,7.66,7.66,0,0,0,3.15-2.25,2.25,2.25,0,0,1,1.11-.74c.21-.06.45,0,.66-.06.8-.2,1.16-1,1.83-1.36s1.28-.57,1.61-1.26C428.64,639.22,428.6,638.67,428.77,638.25Z" transform="translate(-93.67 -204.08)"/><path class="cls-8" d="M484.84,532l-2.69,1.45-.53,1.77c-1.23.79-1,2.23-1.48,3.35-.21.48.36,1,0,1.56a8.3,8.3,0,0,0-.51,1.6l-.48,1.6a6.94,6.94,0,0,1-.5,1.6c-.35.58.47,1,.08,1.58a4.9,4.9,0,0,0-.41,1.36c.5.5.08,1,.08,1.55,0,.22.29.51.22.63-.65,1.14.15,2.24,0,3.35a.42.42,0,0,0,.45.43.93.93,0,0,0,.42-.1c-.06-.69,1-.57.91-1.28s.8-.53.8-1.05.79-.72.89-1.28c.15-.78,1.14-1.09,1.09-2a3.3,3.3,0,0,0,1.09-2c1.1-.27.53-1.84,1.63-2.1a26,26,0,0,0,.74-2.53c.14-.82,1.09-1.07,1.14-2a9.24,9.24,0,0,1,.59-2.06,23.22,23.22,0,0,0-.11-3.33,5.5,5.5,0,0,0-1.54-1.61C486.19,532.42,485.58,532.25,484.84,532Z" transform="translate(-93.67 -204.08)"/><path class="cls-8" d="M384.3,647.89c-.41,1.37-.83,2.75-1.22,4.13a.45.45,0,0,0,.15.4c.11.09.36.18.43.12.54-.42,1.45-.36,1.63-1.24.69-.47,1.64-.59,2-1.48,1-.38,1.47-1.28,2.19-1.92.4-.34.54-1,1.17-1s.57-1,1.19-1c.48-1.32,1.72-2,2.47-3.12.23-.33.73-.32.78-.8s.32-.64.63-.92.3-.87.54-1.27.64-.56.83-1c.37-1,0-2,.21-2.93-.44-.32.17-1-.38-1.22s-.59-1-1.27-.91c-.15,0-.3-.11-.46-.13-.52-.06-1-.44-1.59-.23a10.19,10.19,0,0,0-1.72.57,1.14,1.14,0,0,0-.66.89c0,.27-.28.35-.44.51a4.17,4.17,0,0,0-1.36,2c-.06.31-.49.54-.71.83s-.07.64-.44.79a.81.81,0,0,0-.46.48c-.28.61-.08,1.48-.93,1.81l-.63,1.77c-1.08.76-1,2-1.42,3.12C384.63,646.65,384.49,647.28,384.3,647.89Z" transform="translate(-93.67 -204.08)"/><path class="cls-8" d="M465.78,544.64c-.29,1-.55,2.07-.94,3.1-.25.63.33,1.16,0,1.8s-.59,1.16-.08,1.79c.05.07-.06.29-.12.44a1.89,1.89,0,0,0,0,1.58c.16.33-.35.81,0,1.33s-.48,1,.08,1.53c-.38,1.44.49,2.78.36,4.19a9.89,9.89,0,0,1,.56,2.62,5.52,5.52,0,0,0,.6,1.71c.29.54.44.57,1.13.25l.41-.22.21-.7.55-1.84a9.36,9.36,0,0,0,.46-1.6c.08-.7.76-1,.94-1.52.72-2.12,1.34-4.27,1.94-6.42.14-.49-.34-1,0-1.56a6.25,6.25,0,0,0,.43-1.37c0-.07.06-.18,0-.22-.61-.69.25-1.38,0-2a15.33,15.33,0,0,1-.34-2,1.85,1.85,0,0,0-.55-1,3.86,3.86,0,0,0-3.74-1.16c-.2.05-.54,0-.59.18C467,544.28,466.27,544.24,465.78,544.64Z" transform="translate(-93.67 -204.08)"/><path class="cls-8" d="M448.75,587.37l-2.78-.83-2.09,1.18c-.15.37-.11.9-.67,1.1a.58.58,0,0,0-.26.36c-.37,1.22-.74,2.44-1.1,3.67.5,1.49-.45,2.73-.74,4.08-.13.61.44,1.15,0,1.8a1.31,1.31,0,0,0-.08,1.56c.09.12-.06.44-.12.67s-.26.56-.18.67c.46.6-.12,1.26.12,1.77s-.08.92,0,1.35.28.66.17,1.11a3.22,3.22,0,0,0,.4,2.17c.14.29.67.45.77.23.28-.62,1.12-.85,1.1-1.68s.53-1.07.94-1.52c.77-.84.76-.85,1-1.5s.35-1.07.47-1.61.52-.73.79-1.08c.39-.52,1-.92,1.09-1.7s.23-1.74,1.12-2.2l1.17-3.91c-.47-.79,0-1.5.15-2.25a3.3,3.3,0,0,0-.19-1.52A15.33,15.33,0,0,0,448.75,587.37Z" transform="translate(-93.67 -204.08)"/><path class="cls-8" d="M478.18,576.92c.75-.46.85-.95,1.33-1.17,1.16-.53,2.25-1.19,3.39-1.79.35-.19.28-.71.76-.82s.72-.54,1-.51a1.7,1.7,0,0,0,1.1-.25c.4-.23.45-.83,1-.91s.67-.83,1.19-1a3.69,3.69,0,0,0,1-.86c.33-.3.51-.76.93-1s.47-.78,1-.92a8.4,8.4,0,0,0,1.24-.56c.13-.43.16-1,.32-1,.61-.17.61-.88,1.17-1.1s.3-.78.68-1.15a5.06,5.06,0,0,0,1.05-3c-.4-.36,0-.9-.3-1.31a7.27,7.27,0,0,1-.6-1.07l-3.39-1a7.83,7.83,0,0,1-1.27.78c-.47.2-.62.69-1,.91s-.45.6-.63.93a9.41,9.41,0,0,1-.72.84c-.17.24-.07.65-.45.78s-.4.63-.59.94-.61.38-.64.61c-.11.82-1.12,1.11-1.12,2-.7.26-.68,1-1,1.5s-.95.81-.93,1.52c-.67.17-.81.75-.87,1.28s-.72.55-.85,1-.08,1-.58,1.23c-.13.07-.3.17-.34.29-.28.79-.35,1.69-1.17,2.19Z" transform="translate(-93.67 -204.08)"/><path class="cls-8" d="M456.4,588.64l.79-.43c.59-.86.19-2.16,1.37-2.67,1.05-3.51,2.09-7,3.17-10.53a1.16,1.16,0,0,0-.19-1.09c.14-.47.3-.92.4-1.39s.43-.83.08-1.34.38-1,0-1.57c-.22-.3-.05-.87-.34-1.28a11.52,11.52,0,0,1-.73-1.33l-2.87-.86c-.48.26-1,.51-1.46.79a3.91,3.91,0,0,0-1.79,3c.51.63,0,1.22-.14,1.78a4,4,0,0,0,0,1.79c.06.58-.55,1.17,0,1.78-.54.78.33,1.68-.21,2.47a.73.73,0,0,0-.05.67,2.89,2.89,0,0,1,.27,1.72c-.21.6.16,1,.13,1.57s.46,1.2.35,1.72.5,1,.13,1.56c.45.49.08,1.22.49,1.72C455.48,587.54,456.15,588,456.4,588.64Z" transform="translate(-93.67 -204.08)"/><path class="cls-8" d="M389.71,663.78s0,.11.1.14c.88.44,2.08.2,2.67,1.29.08.15.45.12.67.22,1,.43,2.21.27,2.91,1.34.14.21.59.2.9.29,2.22.67,4.43,1.34,6.66,2,.5.15,1,.51,1.57.07.13-.09.44.07.67.11.68.1,1.27.56,2,.35,1.09-.29,2.27-.28,3.24-1a5.56,5.56,0,0,1,.64-.35c.18-.6.37-1.21.55-1.82a8.44,8.44,0,0,0-.28-2,8.35,8.35,0,0,0-1.49-1.32c-1.07-.32-2.16-.61-3.21-1-.62-.21-1.17.33-1.81,0-.45-.22-1-.56-1.56-.13-.09.07-.29,0-.44,0-.61-.06-1.17-.64-1.8-.29s-1.24-.45-1.77.16c-.66-.36-1.37.17-2-.06s-1.19.4-1.8,0c-.33-.22-.57.24-.86.22a19,19,0,0,0-3.28.53c-.22,0-.5,0-.65.11a3.46,3.46,0,0,1-1.52.44C389.67,663.17,389.6,663.48,389.71,663.78Z" transform="translate(-93.67 -204.08)"/><path class="cls-8" d="M405.32,641.26c.13.23.24.44.35.65a.53.53,0,0,0,.77.29c.43-.21,1-.35,1.22-.71.3-.55.82-.67,1.22-1a9.49,9.49,0,0,0,1-1.16c.33-.4.88-.65.88-1.28a20.73,20.73,0,0,0,2-1.54A14.78,14.78,0,0,0,415,634c.08-.12.11-.38.19-.4.62-.11.57-1,1.19-1a15.93,15.93,0,0,1,.54-1.56c.25-.54.95-.77,1-1.52,0-.24.56-.2.66-.58.22-.85.49-1.69.74-2.53-.37-.37-.13-.89-.31-1.3s-.44-.85-.66-1.26c-.44-.17-1-.13-1.17-.7a.5.5,0,0,0-.58-.28c-.22,0-.43.25-.64.25a2.68,2.68,0,0,0-2.55,1c-.35.3-.52.79-1,.94-.61.22-.26,1.06-.89,1.29s-.47.78-.58,1.21-.8.47-.86,1a6.86,6.86,0,0,1-.39,1.37c-1.08.47-.76,1.65-1.24,2.42-.31.5-.87.82-1,1.51a11,11,0,0,1-.53,1.84l-.54,1.84-.55,1.83Z" transform="translate(-93.67 -204.08)"/><path class="cls-8" d="M414.26,653.32l-.32,1.07c.13.12.22.27.35.31,1.06.34,2.17.57,3.2,1,.77.32,1.49-.33,2.28.11a10.64,10.64,0,0,0,2.28.72c.89-.62,1.67.05,2.47.27.62.17,1.19-.55,1.8,0s1-.1,1.55-.08,1-.29,1.55,0,.89-.07,1.33-.13a9.75,9.75,0,0,0,3.92-1.05c.5-.3.6-.88,1.16-1.1a.83.83,0,0,0,.31-1c-.34-.49.05-1.09-.37-1.56-.13-.14.22-.69-.17-.77s-.51-.75-1-.86a18.42,18.42,0,0,1-2.53-.76c-.45-.17-.75.37-1.09.18-.56-.32-1.11.21-1.55,0s-1.06.18-1.57.07-.85.44-1.33.11-.77.26-1.09.14c-.5-.19-.87.43-1.33.13-.61.33-1.38.13-1.95.59-.28.23-.62,0-.87.13s-.75.12-1.1.2a11,11,0,0,1-1.73.56c-.73.06-1.25,1-2.15.72Z" transform="translate(-93.67 -204.08)"/><path class="cls-8" d="M426.73,614.91c-.32,1.08-.65,2.15-1,3.22-.25.84-.48,1.68-.71,2.52.53.81-.19,1.51-.19,2.25,0,.52.35,1.06,0,1.55s.3,1,.07,1.58c-.1.23.42.56.65.44.73-.41,1.65-.65,1.75-1.72.8-.35,1.09-1.21,1.74-1.73a3.16,3.16,0,0,0,1.35-2,1.16,1.16,0,0,1,.81-1.05c0-.49.55-.53.73-.83a3.62,3.62,0,0,0,.36-1.14,3.89,3.89,0,0,1,1.17-2.19,2.85,2.85,0,0,0,.9-1.28c.18-.65.12-1.48,1-1.78.21-.8.87-1.55.29-2.45.37-.59,0-1.19,0-1.78s-.31-.71-.43-1.07c-.67.05-.57-.91-1.26-.93a6.49,6.49,0,0,1-1.38-.39,8.56,8.56,0,0,0-2,.3,6.2,6.2,0,0,0-1.31,1.5c0,1-1.12,1.24-1.2,2.19a11.57,11.57,0,0,1-.65,2.31Z" transform="translate(-93.67 -204.08)"/><path class="cls-8" d="M436.05,638.61c.61,1.45.68,1.49,1.86,1.26.08,0,.15-.07.22-.07.75,0,1.47-.28,2.19-.3a7.68,7.68,0,0,1,2.13.59c.65-.23,1.28-.9,2.13-.38.08,0,.27-.15.42-.18.51-.09,1.1-.34,1.51-.18.6.24,1-.16,1.58-.1a3.68,3.68,0,0,0,2.4-.39,7.84,7.84,0,0,1,3.45-1.08,3.21,3.21,0,0,0,.88-.1,3.41,3.41,0,0,0,1.24-.69c.39-.43.43-1.15,1.06-1.42a4.25,4.25,0,0,0,.29-2.48,2.38,2.38,0,0,0-.55-1.2,3.81,3.81,0,0,0-3.75-1.14c-.46-.22-.85.46-1.32.11a4.78,4.78,0,0,1-1.06.53,3.83,3.83,0,0,0-1.31.33c-.64.42-1.47.32-2.15.76s-1.63.36-2.35.89a17.82,17.82,0,0,1-2.1,1.16l-2.32,1.25a7.58,7.58,0,0,0-2.07,1.17A12.68,12.68,0,0,1,436.05,638.61Z" transform="translate(-93.67 -204.08)"/><path class="cls-8" d="M469.36,598.42a4,4,0,0,0,2.09-.52c.53-.29,1-.86,1.69-.72s1-.68,1.74-.55c.38.07.89-.27,1.25-.54s.8-.89,1.41-1.14a18.23,18.23,0,0,0,1.9-1c.56-.3,1.14-.57,1.68-.91.72-.46,1.6-.65,2.17-1.36s1.55-.8,2.15-1.39,1.12-.8,1.25-1.56c0-.28,0-.67.38-.81.64-.26.66-.89.72-1.39a3.21,3.21,0,0,0-.23-1.52,19.42,19.42,0,0,0-.87-1.82c-.69-.21-1.22-.4-1.77-.52a3.08,3.08,0,0,0-2.39.38c-.36.24-.48.78-1,.9s-.52.65-.78.76c-.56.22-.54,1-1.17,1.07s-.72.75-1.17,1.05-.73.73-1.19,1a7.22,7.22,0,0,0-1.54,1.58c-.42.52-1.1.83-1.22,1.57-.09.5-.86.45-.82,1-.65.16-.75,1-1.35,1.18-.06.58-.6.87-.83,1.3s-.62.84-.91,1.27a4.08,4.08,0,0,1-.77,1.1A1.79,1.79,0,0,0,469.36,598.42Z" transform="translate(-93.67 -204.08)"/><path class="cls-8" d="M473.05,607.18c-.19,0-.51-.35-.78-.09s-.75,0-1.1.18c-.69.4-1.42.73-2.1,1.15s-1.48.53-1.83,1.35c-.05.12-.29.14-.41.24-.65.52-1.69.52-2,1.47-.69.47-1.55.66-2.07,1.46-.26.41-1,.51-1.42.83s-.47.82-1,.9-.57.94-1.18,1-.67.85-1.19,1-.77.75-1.2,1-.51.76-.61,1.2c0,.07.19.21.3.3s.2.09.22.07c.6-.63,1.35.2,2-.22.21-.15.67,0,.84-.13.58-.52,1.32-.38,2-.59a17.77,17.77,0,0,0,1.93-.37,6.33,6.33,0,0,1,2.18-.5c.7-.06,1.17-.85,1.95-.52.91-.5,1.8-1,2.74-1.47s1.52-1.14,2.55-1c.48-.37,1.22-.4,1.46-1.09.77-.32.72-1.12,1-1.72.41-.78.05-1.51,0-2.22-.12-.87-.92-1.39-1.46-2C473.69,607.27,473.38,607.28,473.05,607.18Z" transform="translate(-93.67 -204.08)"/><path class="cls-8" d="M166.51,635.44a12,12,0,0,0-1.7-.89c-1-.34-1.48-1.38-2.45-1.74a.51.51,0,0,1-.24-.36,1.2,1.2,0,0,0-.88-1,2.12,2.12,0,0,0-.21-.11c-1.24-.39-1.94-1.46-2.79-2.31-.46-.46-.61-1.15-1.33-1.52a8.38,8.38,0,0,1-1.4-1.12c-.89-.77-1.57-1.77-2.49-2.53,0-.79-.61-1-1.17-1.34a4.06,4.06,0,0,1-1.87-2.18c-.12-.33-.38-.47-.56-.69a18.35,18.35,0,0,0-2.15-2.25c-.45-.38-.31-1-.85-1.34a2.39,2.39,0,0,1-1.15-1.32c-.64-.07-.6-.92-1.2-1a4.88,4.88,0,0,0-1.47-2,11.66,11.66,0,0,0-1.55-1.59c-.43-.3-.14-1-.68-1.16s-.54-.69-1-1-.24-1-.55-1.23c-.53-.41-.68-1-1-1.46-.17-.23-.53-.32-.57-.68-.09-.81-.9-.79-1.35-1.19a8.91,8.91,0,0,1-.27-.92,2.71,2.71,0,0,0-.86-1.31,4.23,4.23,0,0,1-1.11-1.69c-.19-.68-1-1.14-1-2-.88-.21-.59-1.46-1.49-1.64-.2-.4-.12-.92-.69-1.17s-.36-.84-.54-1.26-.78-.47-.84-1a1.17,1.17,0,0,0-.71-1.14c-.15,0-.2-.39-.29-.6-.45-1.05-.35-2.36-1.44-3.12l-.48-1.61c-1.12-.65-1-1.88-1.34-2.89-1.27-4.05-2.46-8.11-3.65-12.18-.19-.64-.73-1.3-.13-2-.28-.54-.06-1.32-.81-1.62-.28-.11-.38-.46-.3-.56.42-.55.14-1.05,0-1.58a1.62,1.62,0,0,1,0-1.35.92.92,0,0,0-.47-1.18c-.29-.15-.27-.3-.12-.5a.57.57,0,0,0,0-.67c-.35-.6-.1-1.18-.06-1.79,0-.25,0-.47.24-.57s.52-.09.73.29a6.54,6.54,0,0,0,1,1.14c.11.11.34.18.35.28.16,1.2,1.3,1.9,1.49,3.12a2.43,2.43,0,0,0,1,2c.26.14.28.7.4,1.08.21.69.41,1.38.62,2.07.71.25.77.92.95,1.51s.42,1.38.62,2.07c1.15.54.85,1.78,1.3,2.66.24.48.09,1.18.64,1.46s.49.78.65,1.2.33,1.07.49,1.61c1,.69,1,1.88,1.34,2.89.18.55.9.59.93,1.27a7.19,7.19,0,0,0,.46,1.61c.91.46.85,1.43,1.16,2.2.84.4.85,1.25,1.08,2,.14.47.79.46.85,1,0,.43.09.94.67,1.16s.17.91.7,1.15a.78.78,0,0,1,.42.49c.08,1,1.13,1.44,1.33,2.36.59.14.47.79.76,1.09a2.7,2.7,0,0,1,.81,1.07c.11.32.54.52.71.84a4.66,4.66,0,0,0,.61.93,5.41,5.41,0,0,1,1.11,1.64c.19.6.91.67.94,1.26s.67.64.8,1.06.89.46.83,1,1,.59.9,1.27c.55.15.69.59.82,1.06,0,.13.18.23.3.32,1.09.81,1.42,2.3,2.66,3,0,.69.56,1,1,1.5s.64.89,1.07,1.1c.6.3.31,1,.88,1.32a4.59,4.59,0,0,1,1.1,1.1c.35.38.61.89,1,1.13s.49.74.94,1,.66.77,1,1.15.75.73,1.11,1.1.69.78,1.06,1.14a9.62,9.62,0,0,0,1.45,1.4,8.34,8.34,0,0,1,1.33,1.2c.53.51.88,1.24,1.63,1.53a.77.77,0,0,1,.39.24c.65,1.34,2.29,1.72,2.93,3,.75.27,1.14,1,1.81,1.37s.79,1,1.4,1.16.76.94,1.39,1.18,1.21.41,1.41,1.12a6.93,6.93,0,0,1,2.07,1.45c.46.57,1.32.68,1.84,1.37.4.52,1.26.66,1.84,1.07a9.5,9.5,0,0,0,1.83,1.37,8.94,8.94,0,0,1,1.9,1,9.61,9.61,0,0,0,1.83,1.37,23.94,23.94,0,0,1,2.12,1.12l2.32,1.26,2.11,1.13,2.11,1.14a22.47,22.47,0,0,1,2.1,1.16c.49.33,1,.22,1.52.43s1.13.59,1.7.9,1,.74,1.48.75a6,6,0,0,1,2.56,1.06c.56.28,1.22,0,1.75.51a2.08,2.08,0,0,0,1.5.5,2.21,2.21,0,0,1,1.25.65c.42.34.91,0,1.33.29a10.18,10.18,0,0,0,1.48.73c.71-.33,1.07.63,1.73.48s1,.65,1.49.51c.82-.26,1.22.79,2,.46.57.27,1.13.57,1.71.81.41.16.91,0,1.3.32s.71.19,1.09.24.86.49,1.28.49a1.52,1.52,0,0,1,1.06.38c.37.32.76,0,1.12.18a3.25,3.25,0,0,0,1.51.49c.55,0,1.05.52,1.72.53.5,0,.89.69,1.52.4a7.13,7.13,0,0,0,2.59.93,20.93,20.93,0,0,1,2.35.94c.18.08.44,0,.66,0s.36.32.37.54a.47.47,0,0,1-.45.44c-.23,0-.54.21-.67.12-.47-.35-.9-.15-1.35,0a8.41,8.41,0,0,0-1.14.36c-.44.21-.71-.28-1.1-.19s-.73.35-1.12,0-.79.17-1.09-.21c-1,.07-2-.53-3.11-.29a3.6,3.6,0,0,1-1.72-.4c-.36-.12-.67-.46-1.1-.21-.37-.35-.91-.1-1.29-.32s-.75,0-1.13,0a.58.58,0,0,1-.43-.08c-.67-.61-1.7-.26-2.37-.87a.47.47,0,0,0-.43-.06c-.66.41-1.36-.33-2,.08a.45.45,0,0,1-.42-.06c-.54-.55-1.39-.21-1.94-.66s-1.22-.09-1.74-.53-1.38-.11-1.94-.66c-.34-.33-.87,0-1.32-.29-.25-.15-.85.26-1.08.1-.8-.56-1.83-.37-2.6-1a8.12,8.12,0,0,0-1.48-.8c-.47-.22-.88-.73-1.51-.45a7.68,7.68,0,0,0-1.48-.76c-.59-.17-1.25-.14-1.71-.59s-1.2-.24-1.74-.53l-1.69-.91c-.56-.31-1.12-.62-1.69-.91s-.9-.63-1.52-.45c-.06,0-.18-.21-.28-.32-.35-.38-.69-.78-1-1.15a.78.78,0,0,0-.41-.22,5.86,5.86,0,0,0-1.54-.23,1,1,0,0,1-.84-.32c-1.26-1.39-3.1-1.83-4.58-2.85-.37-.26-1,.3-1.17-.43-.15-.51-.73-.56-1.14-.77a3.75,3.75,0,0,1-1-.91,2.94,2.94,0,0,0-1-.59,7.78,7.78,0,0,1-3.14-2.25,2.3,2.3,0,0,0-1.11-.74c-.21-.06-.45,0-.66-.06-.8-.2-1.17-1-1.83-1.36s-1.29-.57-1.62-1.26C166.63,636.41,166.68,635.86,166.51,635.44Z" transform="translate(-93.67 -204.08)"/><path class="cls-8" d="M110.44,529.21l2.68,1.46.53,1.77c1.23.79,1,2.23,1.49,3.35.21.48-.37,1,0,1.56a7.64,7.64,0,0,1,.5,1.6l.48,1.6a7,7,0,0,0,.51,1.6c.35.58-.47,1-.09,1.58a4.9,4.9,0,0,1,.41,1.36c-.49.5-.07,1-.08,1.55,0,.22-.29.51-.22.63.65,1.14-.15,2.24,0,3.35a.43.43,0,0,1-.46.43.92.92,0,0,1-.41-.1c.06-.69-1-.57-.92-1.28s-.8-.53-.79-1-.79-.72-.9-1.28c-.14-.78-1.13-1.09-1.09-2a3.35,3.35,0,0,1-1.09-2c-1.1-.27-.53-1.84-1.63-2.1a23.4,23.4,0,0,1-.73-2.53c-.15-.82-1.09-1.07-1.15-2a9.85,9.85,0,0,0-.58-2.07,24.65,24.65,0,0,1,.1-3.32,5.53,5.53,0,0,1,1.55-1.61C109.08,529.61,109.7,529.44,110.44,529.21Z" transform="translate(-93.67 -204.08)"/><path class="cls-8" d="M211,645.08c.42,1.37.83,2.75,1.23,4.13a.48.48,0,0,1-.15.4c-.11.09-.36.18-.44.12-.53-.42-1.44-.36-1.62-1.24-.69-.48-1.65-.59-2-1.48-1-.38-1.47-1.28-2.2-1.92-.39-.34-.54-1-1.16-1.05s-.57-.95-1.19-1c-.49-1.32-1.72-2-2.48-3.12-.22-.33-.73-.32-.77-.8s-.33-.64-.63-.92-.31-.87-.54-1.27-.64-.56-.83-1c-.38-1,0-2-.21-2.92.44-.32-.18-1,.37-1.22s.59-1,1.28-.91c.14,0,.3-.11.45-.13.53-.06,1-.44,1.59-.23a9.91,9.91,0,0,1,1.72.57,1.14,1.14,0,0,1,.66.89c0,.27.28.35.44.51a4,4,0,0,1,1.36,2c.06.31.5.54.71.83s.07.64.44.79a.82.82,0,0,1,.47.48c.28.61.08,1.48.92,1.81l.63,1.77c1.09.76,1,2,1.43,3.11C210.65,643.84,210.79,644.46,211,645.08Z" transform="translate(-93.67 -204.08)"/><path class="cls-8" d="M129.49,541.83c.29,1,.56,2.07.95,3.1.24.63-.33,1.16,0,1.8s.6,1.16.09,1.78c-.06.08.06.3.11.45a1.89,1.89,0,0,1,0,1.58c-.16.33.34.81,0,1.33s.47,1-.09,1.53c.38,1.44-.48,2.78-.35,4.19a9.89,9.89,0,0,0-.56,2.62,5.79,5.79,0,0,1-.6,1.71c-.29.54-.45.57-1.13.25l-.42-.22-.21-.7-.55-1.84a9.21,9.21,0,0,1-.46-1.61c-.07-.69-.76-1-.94-1.51-.72-2.12-1.33-4.27-1.93-6.42-.14-.49.34-1,0-1.56a6.81,6.81,0,0,1-.42-1.37c0-.07-.06-.18,0-.22.61-.7-.25-1.38,0-2a13.77,13.77,0,0,0,.34-2,1.93,1.93,0,0,1,.56-1,3.86,3.86,0,0,1,3.74-1.16c.2,0,.53,0,.58.18C128.32,541.47,129,541.43,129.49,541.83Z" transform="translate(-93.67 -204.08)"/><path class="cls-8" d="M146.52,584.56l2.78-.83,2.1,1.18c.15.36.1.9.67,1.1a.58.58,0,0,1,.25.36c.38,1.22.74,2.44,1.11,3.67-.5,1.49.45,2.72.73,4.07.13.62-.43,1.16,0,1.81a1.3,1.3,0,0,1,.09,1.56c-.1.12.06.44.11.67s.27.56.18.67c-.45.6.13,1.26-.12,1.77s.09.92,0,1.35-.27.66-.17,1.1a3.29,3.29,0,0,1-.39,2.18c-.14.29-.67.45-.77.23-.28-.62-1.13-.85-1.1-1.68s-.53-1.07-.94-1.52c-.78-.84-.76-.85-1-1.5s-.36-1.07-.47-1.61-.53-.73-.79-1.08c-.39-.52-1-.92-1.09-1.7s-.23-1.74-1.13-2.21l-1.16-3.9c.46-.79,0-1.5-.15-2.25a3.17,3.17,0,0,1,.19-1.52A16.69,16.69,0,0,1,146.52,584.56Z" transform="translate(-93.67 -204.08)"/><path class="cls-8" d="M117.1,574.1c-.75-.45-.85-.94-1.33-1.16-1.16-.53-2.26-1.2-3.39-1.79-.36-.19-.29-.71-.76-.83s-.73-.53-1.06-.5a1.73,1.73,0,0,1-1.1-.25c-.39-.23-.44-.83-1-.91s-.66-.83-1.19-1a3.52,3.52,0,0,1-1-.86c-.34-.3-.51-.76-.94-1s-.46-.78-1-.92a8.9,8.9,0,0,1-1.24-.56c-.12-.43-.15-.95-.31-1-.61-.17-.61-.88-1.17-1.1-.41-.16-.3-.78-.68-1.15a5.1,5.1,0,0,1-1.06-3c.41-.36,0-.9.31-1.31a7.78,7.78,0,0,0,.59-1.07l3.39-1a8.76,8.76,0,0,0,1.28.78c.46.2.62.69,1,.91s.44.6.62.93a9.41,9.41,0,0,0,.72.84c.17.24.08.65.46.77s.39.64.59,1,.6.38.63.61c.12.82,1.12,1.11,1.12,2,.71.26.69,1,1,1.5s.94.81.93,1.52c.66.17.81.75.86,1.28s.72.55.86,1,.07,1,.58,1.23c.13.07.3.16.34.29.28.79.34,1.69,1.17,2.19Z" transform="translate(-93.67 -204.08)"/><path class="cls-8" d="M138.88,585.83l-.79-.43c-.6-.87-.2-2.16-1.38-2.67-1.05-3.51-2.09-7-3.16-10.53a1.11,1.11,0,0,1,.19-1.09c-.14-.47-.3-.92-.41-1.39s-.43-.84-.08-1.34-.37-1,0-1.57c.23-.31.05-.87.35-1.28a14.47,14.47,0,0,0,.73-1.33l2.87-.86c.47.26,1,.51,1.45.79a3.91,3.91,0,0,1,1.8,3c-.51.63-.06,1.22.14,1.78a4,4,0,0,1,0,1.79c0,.58.56,1.17,0,1.78.53.78-.34,1.68.2,2.47a.73.73,0,0,1,.06.67,2.81,2.81,0,0,0-.27,1.72c.2.6-.16,1-.13,1.57s-.47,1.2-.35,1.72-.51,1-.14,1.56c-.45.49-.07,1.22-.48,1.72C139.79,584.73,139.12,585.2,138.88,585.83Z" transform="translate(-93.67 -204.08)"/><path class="cls-8" d="M205.56,661a.23.23,0,0,1-.09.14c-.88.44-2.08.2-2.68,1.29-.08.15-.45.12-.66.22-1,.43-2.21.27-2.92,1.34-.13.21-.58.2-.89.29-2.22.67-4.44,1.34-6.66,2-.51.15-1,.51-1.58.07-.12-.09-.44.07-.66.11-.69.1-1.28.56-2,.35-1.09-.29-2.26-.28-3.23-1a5.71,5.71,0,0,0-.65-.35l-.54-1.82a2.89,2.89,0,0,1,1.77-3.3c1.07-.33,2.15-.61,3.21-1,.61-.21,1.16.33,1.8,0,.45-.22,1-.56,1.56-.13.1.07.29,0,.44,0,.61-.06,1.18-.64,1.81-.29s1.24-.45,1.77.16c.66-.36,1.37.17,2-.06s1.19.4,1.79,0c.34-.22.57.24.86.22a19.12,19.12,0,0,1,3.29.53c.22,0,.49,0,.65.11a3.42,3.42,0,0,0,1.52.44C205.6,660.36,205.68,660.67,205.56,661Z" transform="translate(-93.67 -204.08)"/><path class="cls-8" d="M190,638.45l-.35.65a.52.52,0,0,1-.76.29c-.43-.21-1-.35-1.23-.71-.29-.55-.82-.67-1.22-1a9.41,9.41,0,0,1-1-1.16c-.34-.4-.89-.65-.89-1.28a19.4,19.4,0,0,1-1.95-1.54,14.83,14.83,0,0,1-2.25-2.46c-.08-.13-.1-.38-.19-.4-.62-.11-.56-1-1.19-1a13.67,13.67,0,0,0-.54-1.56c-.24-.54-1-.78-1-1.52,0-.24-.56-.2-.66-.58-.23-.85-.5-1.69-.75-2.53.38-.37.14-.89.32-1.3s.44-.85.66-1.26c.43-.17,1-.13,1.16-.7.09-.27.37-.3.59-.28s.42.25.64.25c1.5,0,1.45.07,2.55,1,.34.3.52.79,1,.94.62.22.27,1.06.9,1.29s.46.78.58,1.21.8.47.85,1.05a7.59,7.59,0,0,0,.39,1.37c1.08.47.77,1.65,1.25,2.42.31.5.87.82.95,1.51a12,12,0,0,0,.53,1.84l.55,1.84.55,1.83Z" transform="translate(-93.67 -204.08)"/><path class="cls-8" d="M181,650.51l.32,1.07c-.12.12-.21.27-.34.31-1.07.34-2.18.57-3.21,1-.77.32-1.48-.33-2.27.11a10.82,10.82,0,0,1-2.28.72c-.9-.63-1.68,0-2.47.27-.63.17-1.19-.55-1.8,0s-1-.1-1.55-.08-1-.29-1.55,0-.9-.07-1.33-.13a9.79,9.79,0,0,1-3.93-1c-.49-.3-.6-.88-1.15-1.1a.82.82,0,0,1-.32-1c.35-.49,0-1.09.38-1.56.12-.14-.22-.69.17-.77s.51-.75,1-.87a17,17,0,0,0,2.52-.75c.45-.17.75.37,1.1.17.56-.31,1.11.22,1.55,0,.59-.27,1.05.18,1.57.07s.85.44,1.33.11.77.26,1.08.14c.51-.19.87.43,1.34.13.61.33,1.38.13,1.95.59.27.23.62.05.87.13s.74.12,1.09.2a9.84,9.84,0,0,0,1.74.55c.73.07,1.25,1,2.15.73Z" transform="translate(-93.67 -204.08)"/><path class="cls-8" d="M168.54,612.1c.33,1.07.65,2.15,1,3.22.24.84.47,1.68.71,2.52-.54.81.19,1.51.18,2.25,0,.52-.34,1.06,0,1.55s-.31,1-.07,1.57c.1.24-.42.57-.65.45-.74-.41-1.66-.65-1.75-1.72-.8-.35-1.1-1.21-1.74-1.73a3.12,3.12,0,0,1-1.35-2,1.17,1.17,0,0,0-.82-1c0-.5-.54-.53-.72-.83a3.45,3.45,0,0,1-.36-1.14,4.08,4.08,0,0,0-1.17-2.2,2.86,2.86,0,0,1-.91-1.27c-.18-.65-.11-1.48-1-1.78-.2-.8-.87-1.55-.28-2.45-.37-.59,0-1.19,0-1.78s.32-.71.43-1.08c.68.06.58-.9,1.26-.92a6.33,6.33,0,0,0,1.38-.39,9.29,9.29,0,0,1,2,.29,6.39,6.39,0,0,1,1.3,1.51c0,.95,1.12,1.24,1.2,2.19a12,12,0,0,0,.66,2.3Z" transform="translate(-93.67 -204.08)"/><path class="cls-8" d="M159.22,635.8c-.6,1.45-.67,1.49-1.86,1.26-.07,0-.14-.07-.21-.07-.76,0-1.48-.28-2.19-.3a7.41,7.41,0,0,0-2.14.59c-.64-.23-1.28-.91-2.13-.38-.07,0-.26-.16-.41-.18-.51-.09-1.1-.34-1.52-.18-.6.24-1-.16-1.57-.1a3.66,3.66,0,0,1-2.4-.39,7.84,7.84,0,0,0-3.46-1.08,3,3,0,0,1-2.12-.79c-.39-.43-.42-1.15-1.06-1.42a4.35,4.35,0,0,1-.29-2.48,2.31,2.31,0,0,1,.56-1.2,3.8,3.8,0,0,1,3.74-1.14c.46-.22.85.46,1.32.11a4.84,4.84,0,0,0,1.07.53,3.42,3.42,0,0,1,1.3.33c.64.42,1.47.32,2.15.76s1.63.36,2.36.89a17.69,17.69,0,0,0,2.09,1.16c.78.41,1.55.83,2.32,1.25a7.43,7.43,0,0,1,2.07,1.17A13,13,0,0,0,159.22,635.8Z" transform="translate(-93.67 -204.08)"/><path class="cls-8" d="M125.91,595.6a3.86,3.86,0,0,1-2.09-.51c-.53-.3-1-.86-1.69-.73s-1-.67-1.73-.54c-.38.07-.89-.27-1.26-.54s-.8-.89-1.4-1.14a20.35,20.35,0,0,1-1.9-1c-.57-.3-1.15-.57-1.68-.91-.72-.46-1.61-.65-2.18-1.37s-1.55-.79-2.15-1.38c-.45-.45-1.12-.8-1.24-1.56,0-.28,0-.67-.38-.81-.64-.26-.66-.89-.73-1.39a3.34,3.34,0,0,1,.23-1.52c.25-.66.61-1.29.87-1.82.7-.21,1.23-.4,1.77-.52a3.08,3.08,0,0,1,2.39.38c.37.24.48.78,1,.9s.53.65.79.76c.56.22.54,1,1.17,1.07s.72.75,1.17,1,.73.73,1.19,1a7.46,7.46,0,0,1,1.54,1.58c.41.52,1.1.83,1.22,1.57.08.5.86.45.82,1,.65.16.74,1,1.35,1.17.06.59.6.88.83,1.31a13.21,13.21,0,0,0,.91,1.27,4.08,4.08,0,0,0,.77,1.1A1.81,1.81,0,0,1,125.91,595.6Z" transform="translate(-93.67 -204.08)"/><path class="cls-8" d="M122.22,604.37c.2,0,.51-.35.78-.09s.76,0,1.11.18c.69.39,1.41.73,2.09,1.15s1.49.53,1.84,1.35c.05.12.28.14.4.24.65.52,1.7.51,2,1.47.7.47,1.55.65,2.07,1.46.27.41,1,.51,1.42.83s.48.82,1,.89.57.95,1.19,1,.67.84,1.19,1,.77.75,1.2,1,.5.76.6,1.19c0,.08-.18.22-.3.31s-.19.09-.22.07c-.6-.63-1.35.2-2-.22-.22-.15-.67,0-.85-.13-.57-.52-1.32-.38-2-.59s-1.36-.11-1.94-.37a6.28,6.28,0,0,0-2.18-.5c-.7-.06-1.17-.85-1.94-.53-.91-.49-1.81-1-2.74-1.46s-1.52-1.14-2.56-1c-.47-.37-1.21-.4-1.45-1.09-.77-.32-.73-1.12-1-1.72-.41-.78-.06-1.51,0-2.23s.92-1.38,1.46-2C121.58,604.46,121.89,604.47,122.22,604.37Z" transform="translate(-93.67 -204.08)"/></g></svg>